<svg width="34" height="34" viewBox="0 0 34 34" fill="none" xmlns="http://www.w3.org/2000/svg">
<mask id="mask0_36_2108" style="mask-type:luminance" maskUnits="userSpaceOnUse" x="0" y="0" width="34" height="34">
<path d="M0.200195 0.19883H33.8002V33.7988H0.200195V0.19883Z" fill="white"/>
</mask>
<g mask="url(#mask0_36_2108)">
<path d="M26.844 17C26.844 22.4366 22.4368 26.8438 17.0002 26.8438C11.5637 26.8438 7.15649 22.4366 7.15649 17C7.15649 11.5634 11.5637 7.15625 17.0002 7.15625C22.4368 7.15625 26.844 11.5634 26.844 17Z" stroke="#56BB97" stroke-width="1.5" stroke-miterlimit="10" stroke-linecap="round" stroke-linejoin="round"/>
<path d="M21.9221 14.0469L16.0159 19.9531L12.0784 16.0156" stroke="#56BB97" stroke-width="1.5" stroke-miterlimit="10" stroke-linecap="round" stroke-linejoin="round"/>
<path d="M15.7235 1.65325C16.4593 1.02653 17.5411 1.02653 18.2769 1.65325L20.8351 3.91108L25.1643 3.57606C26.128 3.50151 27.0032 4.13735 27.23 5.07684L28.098 8.67151L31.8805 10.9357C32.7039 11.4418 33.0382 12.4707 32.6695 13.364L31.1752 16.985L32.6695 20.606C33.0382 21.4994 32.7039 22.5283 31.8805 23.0344L28.098 25.2986L27.23 28.8933C27.0032 29.8327 26.128 30.4686 25.1643 30.394L20.8774 30.0622L18.2769 32.3444C17.5411 32.9711 16.4593 32.9711 15.7235 32.3444L13.1229 30.0622L8.83605 30.394C7.87241 30.4686 6.99717 29.8327 6.77037 28.8933L5.89894 25.2843L2.12274 23.0344C1.29928 22.5283 0.964989 21.4994 1.33374 20.606L2.82802 16.985L1.33374 13.364C0.964989 12.4707 1.29928 11.4418 2.12274 10.9357L5.57528 8.8846L6.77037 5.07684C6.99717 4.13735 7.87241 3.50151 8.83605 3.57606L13.1653 3.91108L15.7235 1.65325Z" stroke="#56BB97" stroke-width="1.5" stroke-miterlimit="10" stroke-linecap="round" stroke-linejoin="round"/>
</g>
</svg>
