<svg width="15" height="16" viewBox="0 0 15 16" fill="none" xmlns="http://www.w3.org/2000/svg">
<path d="M14.6484 13.5781C15.0703 14.0469 15.0703 14.75 14.6484 15.1719C14.1797 15.6406 13.4766 15.6406 13.0547 15.1719L7.52344 9.59375L1.94531 15.1719C1.47656 15.6406 0.773438 15.6406 0.351562 15.1719C-0.117188 14.75 -0.117188 14.0469 0.351562 13.5781L5.92969 8L0.351562 2.42188C-0.117188 1.95312 -0.117188 1.25 0.351562 0.828125C0.773438 0.359375 1.47656 0.359375 1.89844 0.828125L7.52344 6.45312L13.1016 0.875C13.5234 0.40625 14.2266 0.40625 14.6484 0.875C15.1172 1.29688 15.1172 2 14.6484 2.46875L9.07031 8L14.6484 13.5781Z" fill="#BABABB"/>
</svg>
