<svg width="32" height="32" viewBox="0 0 32 32" fill="none" xmlns="http://www.w3.org/2000/svg">
<path d="M22.7557 23.1582H12.6399" stroke="black" stroke-width="2" stroke-miterlimit="10" stroke-linecap="round" stroke-linejoin="round"/>
<mask id="mask0_235_2625" style="mask-type:luminance" maskUnits="userSpaceOnUse" x="0" y="0" width="32" height="32">
<path d="M0 1.90735e-06H32V32H0V1.90735e-06Z" fill="white"/>
</mask>
<g mask="url(#mask0_235_2625)">
<path d="M28.915 23.1592H31.0625V16.6389L25.6845 11.0821H21.2839V11.0901V23.1" stroke="black" stroke-width="2" stroke-miterlimit="10" stroke-linecap="round" stroke-linejoin="round"/>
<path d="M31.0625 16.6387H21.2836" stroke="black" stroke-width="2" stroke-miterlimit="10" stroke-linecap="round" stroke-linejoin="round"/>
<path d="M7.52649 20.8912C8.67262 19.745 10.5307 19.745 11.6769 20.8912C12.8229 22.0373 12.8229 23.8956 11.6769 25.0417C10.5307 26.1879 8.67262 26.1879 7.52649 25.0417C6.38037 23.8956 6.38037 22.0373 7.52649 20.8912Z" stroke="black" stroke-width="2" stroke-miterlimit="10" stroke-linecap="round" stroke-linejoin="round"/>
<path d="M23.8844 20.8912C25.0306 19.745 26.8887 19.745 28.0348 20.8912C29.1809 22.0373 29.1809 23.8956 28.0348 25.0417C26.8887 26.1879 25.0306 26.1879 23.8844 25.0417C22.7384 23.8956 22.7384 22.0373 23.8844 20.8912Z" stroke="black" stroke-width="2" stroke-miterlimit="10" stroke-linecap="round" stroke-linejoin="round"/>
<path d="M3.89746 6.09944V23.1484H6.54552" stroke="black" stroke-width="2" stroke-miterlimit="10" stroke-linecap="round" stroke-linejoin="round"/>
<path d="M21.3102 11.0898V6.09966H3.89749" stroke="black" stroke-width="2" stroke-miterlimit="10" stroke-linecap="round" stroke-linejoin="round"/>
<path d="M10.4022 6.09961H3.89746" stroke="black" stroke-width="2" stroke-miterlimit="10" stroke-linecap="round" stroke-linejoin="round"/>
<path d="M10.4022 9.85059H2.25027" stroke="black" stroke-width="2" stroke-miterlimit="10" stroke-linecap="round" stroke-linejoin="round"/>
<path d="M9.71453 13.6016H0.937469" stroke="black" stroke-width="2" stroke-miterlimit="10" stroke-linecap="round" stroke-linejoin="round"/>
</g>
</svg>
