<svg width="32" height="32" viewBox="0 0 32 32" fill="none" xmlns="http://www.w3.org/2000/svg">
<g clip-path="url(#clip0_238_2825)">
<path d="M31.0625 15.8201C31.0625 19.9528 27.7257 22.0951 23.5994 22.1107L9.25981 22.1357C5.84044 22.1424 2.72575 24.1059 1.24088 27.1907C0.37825 28.9831 1.68219 31.0624 3.66881 31.0624H20.7619C26.4508 31.0624 31.0625 26.4435 31.0625 20.7459V16.0147C31.0625 9.82074 26.049 4.79949 19.8646 4.79949H4.80431C2.68313 4.79955 0.957875 3.08818 0.9375 0.963867L0.974312 5.22218C0.974312 9.44749 4.39431 12.8727 8.61312 12.8727H18.9237C21.4732 12.8727 23.5399 14.9427 23.5399 17.4961C23.5399 20.0495 21.4732 22.1195 18.9237 22.1195" stroke="black" stroke-width="1.4" stroke-miterlimit="10" stroke-linecap="round" stroke-linejoin="round"/>
<circle cx="7.03006" cy="26.5146" r="0.9375" fill="black"/>
<path d="M0.9375 0.9375H11.7494C13.8646 0.9375 15.5793 2.65481 15.5793 4.77325" stroke="black" stroke-width="1.4" stroke-miterlimit="10" stroke-linecap="round" stroke-linejoin="round"/>
<path d="M8.29276 31.0623C10.4051 31.0623 12.1175 29.3472 12.1175 27.2316V26.7832" stroke="black" stroke-width="1.4" stroke-miterlimit="10" stroke-linecap="round" stroke-linejoin="round"/>
</g>
<defs>
<clipPath id="clip0_238_2825">
<rect width="32" height="32" fill="white"/>
</clipPath>
</defs>
</svg>
