<svg width="32" height="32" viewBox="0 0 32 32" fill="none" xmlns="http://www.w3.org/2000/svg">
<path d="M31.8593 13.714C31.8593 13.6085 32.211 10.8656 27.9209 9.81066C26.2681 9.42385 25.0022 9.52934 24.1231 10.1623C23.2088 10.8304 23.1033 11.7799 23.1033 11.8502V14.2063C21.6615 14.0656 20.2549 13.9601 19.0593 13.8898C18.9187 13.503 18.0044 12.026 17.8286 11.7096C16.5275 9.49418 16.9846 8.26341 18.8835 6.71616C19.2352 6.43484 19.2703 5.94253 18.989 5.62605C18.7077 5.2744 18.2154 5.23923 17.8989 5.52055C15.9297 7.10297 14.5231 9.1777 16.4923 12.5184C16.7033 12.87 17.2308 13.714 17.3011 13.8546C16.6681 13.8546 16.2462 13.8546 16.1758 13.8546C15.8593 13.8546 12.0264 13.8546 8.2989 14.3469C7.5956 13.8195 6.61099 13.2568 5.13406 12.9052C3.65714 12.5535 2.42637 12.6942 1.51209 13.3271C0.351646 14.1359 0.140656 15.4019 0.105492 15.5425C0.105492 15.648 0.105492 15.7535 0.140656 15.859L1.12527 19.059C1.96923 25.7052 8.40439 30.8392 16.1758 30.8392C24.5099 30.8392 31.2967 24.9315 31.2967 17.6524C31.2967 17.6524 31.3319 17.3711 31.156 16.9843C31.0857 16.8788 31.8593 13.7491 31.8593 13.714ZM24.6857 11.8502C24.7209 11.7447 24.8264 11.5689 25.0022 11.4634C25.4945 11.1118 26.3736 11.0766 27.4989 11.3579C30.2066 11.9909 30.2769 13.3271 30.2769 13.503L29.7494 15.7887C28.4835 15.1557 26.6198 14.7337 24.6505 14.4524C24.6505 14.4524 24.6505 11.9206 24.6857 11.8502ZM17.3011 15.4722C17.1253 15.6832 16.844 15.8942 16.4923 16.2107C16.1758 16.492 16.1407 16.9843 16.422 17.3008C16.5626 17.4766 16.8088 17.5821 17.0198 17.5821C17.1956 17.5821 17.3714 17.5118 17.5473 17.4063C18.3912 16.6678 18.8835 16.07 19.1297 15.5425C25.4593 15.7887 29.222 16.8788 29.7143 17.5821C29.1516 18.3557 24.3341 19.692 16.1758 19.692C13.7494 19.692 11.6044 19.5865 9.81099 19.3755C9.81099 19.3755 9.81099 16.492 9.81099 16.4568C9.81099 16.4217 9.74066 16.1755 9.52967 15.7887C11.3934 15.5777 13.6088 15.4722 16.1758 15.4722H17.3011ZM7.77143 15.9997C8.05274 16.3162 8.1934 16.5975 8.22857 16.703V19.1997C4.88791 18.7425 2.95384 18.0744 2.6022 17.5821C2.95384 17.1249 4.74725 16.4568 7.77143 15.9997ZM2.42637 14.6634C2.95384 14.2766 3.76263 14.2414 4.78241 14.4876C5.16923 14.5931 5.48571 14.6986 5.8022 14.8041C4.14945 15.1206 2.74285 15.5777 1.86373 16.2107L1.68791 15.6832C1.7934 15.437 1.96923 14.9799 2.42637 14.6634ZM16.1758 29.2568C10.1275 29.2568 4.9934 25.8458 3.27033 21.1689C3.23516 21.0634 2.91868 19.5162 2.91868 19.5162C4.29011 20.114 6.25934 20.5008 8.26373 20.7821V21.7315C8.26373 22.1535 8.61538 22.5052 9.03736 22.5052C9.45934 22.5052 9.81099 22.1535 9.81099 21.7315V20.9579C13.011 21.2744 15.8945 21.2744 16.1758 21.2744C16.6681 21.2744 25.7055 21.2392 29.5736 19.481C28.5538 25.0019 22.9275 29.2568 16.1758 29.2568Z" fill="black"/>
<path d="M19.9385 9.07238C19.5516 9.28337 19.411 9.74052 19.5868 10.1273C19.7275 10.4086 20.0088 10.5493 20.2901 10.5493C20.3956 10.5493 20.5363 10.5141 20.6418 10.479C21.556 9.98667 22.1187 8.82623 22.1538 7.17348C22.2242 5.27458 21.5912 2.9537 20.2901 2.18008C19.9033 1.96909 19.4462 2.07458 19.2352 2.4614C19.0242 2.84821 19.1297 3.30535 19.5165 3.51634C20.0791 3.86799 20.6769 5.41524 20.6066 7.10315C20.5714 8.22843 20.2198 8.89656 19.9385 9.07238Z" fill="black"/>
<path d="M14.3121 5.76702C13.9253 5.55603 13.4681 5.73185 13.2571 6.11867C12.6945 7.20878 11.3582 10.1978 12.9055 12.2022C13.0462 12.4132 13.5736 12.6593 13.9956 12.3428C14.3472 12.0615 14.4176 11.6044 14.1363 11.2527C13.7143 10.6901 13.1516 9.77581 14.6286 6.82196C14.8396 6.43515 14.6989 5.97801 14.3121 5.76702Z" fill="black"/>
<path d="M15.6484 24.8962C15.6132 24.8962 13.011 24.8962 10.444 24.1577C10.022 24.0522 9.6 24.2632 9.4945 24.6852C9.38901 25.1072 9.6 25.5292 10.022 25.6347C12.8 26.4435 15.5429 26.4435 15.6484 26.4435C16.0703 26.4435 16.422 26.0918 16.422 25.6698C16.422 25.2479 16.0703 24.8962 15.6484 24.8962Z" fill="black"/>
</svg>
