<svg width="32" height="32" viewBox="0 0 32 32" fill="none" xmlns="http://www.w3.org/2000/svg">
<path d="M23.978 21.1433C23.8859 20.9216 23.675 20.7723 23.4353 20.759C23.3887 20.7565 23.0584 20.7404 22.5579 20.7658C24.5302 18.4707 24.1234 14.9113 24.0247 14.247C24.0205 14.1791 24.0052 14.1112 23.9781 14.0461C23.886 13.8245 23.6751 13.6751 23.4354 13.6618C23.3889 13.6593 23.0602 13.6433 22.5618 13.6685C24.5297 11.3733 24.1233 7.81802 24.0247 7.15415C24.0204 7.08483 24.0045 7.01558 23.9765 6.94946C23.8835 6.72977 23.6735 6.58215 23.4354 6.56896C23.2617 6.55946 19.1522 6.36183 16.9505 8.82383C16.5384 9.28452 16.2298 9.80321 16 10.3433C15.7702 9.80327 15.4616 9.28458 15.0495 8.82383C12.8477 6.36177 8.73842 6.5594 8.56455 6.5689C8.32636 6.58208 8.11692 6.73033 8.02399 6.95002C7.99717 7.0134 7.98149 7.07952 7.97649 7.14602C7.88005 7.78846 7.46217 11.3636 9.43811 13.6685C8.93974 13.6433 8.61111 13.6593 8.56455 13.6619C8.32486 13.6751 8.11442 13.8251 8.02236 14.0468C7.99649 14.1091 7.98136 14.174 7.97649 14.2391C7.87999 14.8823 7.4618 18.4613 9.44199 20.7659C8.94149 20.7405 8.61124 20.7566 8.56455 20.7591C8.32486 20.7723 8.11442 20.9223 8.02236 21.144C7.99649 21.2063 7.98136 21.2711 7.97649 21.3362C7.87886 21.9867 7.45192 25.6401 9.50974 27.941C11.261 29.898 14.1935 30.2251 15.371 30.2754V31.3752C15.371 31.7204 15.6508 32.0002 15.996 32.0002C16.3412 32.0002 16.621 31.7204 16.621 31.3752V30.2755C17.7945 30.2263 20.7354 29.9018 22.4902 27.9407C24.5397 25.6491 24.1244 22.016 24.0246 21.3442C24.0204 21.2763 24.0051 21.2084 23.978 21.1433ZM9.15711 14.9104C10.2384 14.9444 12.7298 15.1979 14.1178 16.75C15.5029 18.2986 15.4258 20.8305 15.3153 21.9226C14.2499 21.8632 11.8238 21.555 10.4414 20.0101C9.0443 18.4481 9.06986 15.9746 9.15711 14.9104ZM15.3153 29.0198C14.2499 28.9603 11.8238 28.6521 10.4414 27.1073C9.0443 25.5451 9.06986 23.0718 9.15711 22.0075C10.2384 22.0415 12.7298 22.295 14.1178 23.8471C15.503 25.3958 15.4258 27.9276 15.3153 29.0198ZM15.3153 14.8297C14.2499 14.7703 11.8237 14.462 10.4414 12.9173C9.0443 11.3551 9.06986 8.88171 9.15717 7.81746C10.2385 7.85152 12.73 8.10508 14.1178 9.65702C15.503 11.2058 15.4259 13.7376 15.3153 14.8297ZM22.843 14.9104C22.9302 15.9746 22.9558 18.4481 21.5587 20.0101C20.1767 21.5545 17.7519 21.863 16.6848 21.9226C16.5743 20.8303 16.4972 18.2985 17.8823 16.75C19.2704 15.1979 21.7617 14.9444 22.843 14.9104ZM17.8822 9.65702C19.2702 8.10496 21.7617 7.85152 22.8429 7.81746C22.9302 8.88165 22.9558 11.3551 21.5587 12.9171C20.1767 14.4615 17.7518 14.7701 16.6847 14.8296C16.5742 13.7374 16.4971 11.2056 17.8822 9.65702ZM21.5587 27.1072C20.1767 28.6516 17.7519 28.9601 16.6848 29.0197C16.5743 27.9275 16.4972 25.3956 17.8823 23.8471C19.2703 22.295 21.7617 22.0415 22.843 22.0075C22.9302 23.0718 22.9558 25.5451 21.5587 27.1072Z" fill="black"/>
<path d="M15.9961 2.16406C15.6509 2.16406 15.3711 2.44388 15.3711 2.78906V6.00781C15.3711 6.353 15.6509 6.63281 15.9961 6.63281C16.3413 6.63281 16.6211 6.353 16.6211 6.00781V2.78906C16.6211 2.44388 16.3413 2.16406 15.9961 2.16406Z" fill="black"/>
<path d="M15.9961 0C15.6509 0 15.3711 0.279813 15.3711 0.625V0.633625C15.3711 0.978812 15.6509 1.25863 15.9961 1.25863C16.3413 1.25863 16.6211 0.978812 16.6211 0.633625V0.625C16.6211 0.279813 16.3413 0 15.9961 0Z" fill="black"/>
<path d="M12.9961 2.91602C12.6509 2.91602 12.3711 3.19583 12.3711 3.54102V5.91677C12.3711 6.26195 12.6509 6.54183 12.9961 6.54183C13.3413 6.54183 13.6211 6.26202 13.6211 5.91683V3.54102C13.6211 3.19583 13.3412 2.91602 12.9961 2.91602Z" fill="black"/>
<path d="M12.9961 0.751953C12.6509 0.751953 12.3711 1.03177 12.3711 1.37695V1.38558C12.3711 1.73077 12.6509 2.01058 12.9961 2.01058C13.3413 2.01058 13.6211 1.73077 13.6211 1.38558V1.37695C13.6211 1.03177 13.3413 0.751953 12.9961 0.751953Z" fill="black"/>
<path d="M18.9961 2.91602C18.6509 2.91602 18.3711 3.19583 18.3711 3.54102V5.91677C18.3711 6.26195 18.6509 6.54183 18.9961 6.54183C19.3413 6.54183 19.6211 6.26202 19.6211 5.91683V3.54102C19.6211 3.19583 19.3413 2.91602 18.9961 2.91602Z" fill="black"/>
<path d="M18.9961 0.751953C18.6509 0.751953 18.3711 1.03177 18.3711 1.37695V1.38558C18.3711 1.73077 18.6509 2.01058 18.9961 2.01058C19.3413 2.01058 19.6211 1.73077 19.6211 1.38558V1.37695C19.6211 1.03177 19.3413 0.751953 18.9961 0.751953Z" fill="black"/>
</svg>
