<svg width="32" height="32" viewBox="0 0 32 32" fill="none" xmlns="http://www.w3.org/2000/svg">
<path fill-rule="evenodd" clip-rule="evenodd" d="M16 7.66699C15.4477 7.66699 15 7.21927 15 6.66699V2.66699C15 2.11471 15.4477 1.66699 16 1.66699C16.5523 1.66699 17 2.11471 17 2.66699V6.66699C17 7.21927 16.5523 7.66699 16 7.66699Z" fill="#56BB97"/>
<path fill-rule="evenodd" clip-rule="evenodd" d="M16 30.334C15.4477 30.334 15 29.8863 15 29.334V25.334C15 24.7817 15.4477 24.334 16 24.334C16.5523 24.334 17 24.7817 17 25.334V29.334C17 29.8863 16.5523 30.334 16 30.334Z" fill="#56BB97"/>
<path fill-rule="evenodd" clip-rule="evenodd" d="M24.3335 16C24.3335 15.4477 24.7812 15 25.3335 15H29.3335C29.8858 15 30.3335 15.4477 30.3335 16C30.3335 16.5523 29.8858 17 29.3335 17H25.3335C24.7812 17 24.3335 16.5523 24.3335 16Z" fill="#56BB97"/>
<path fill-rule="evenodd" clip-rule="evenodd" d="M1.66675 16C1.66675 15.4477 2.11447 15 2.66675 15H6.66675C7.21903 15 7.66675 15.4477 7.66675 16C7.66675 16.5523 7.21903 17 6.66675 17H2.66675C2.11447 17 1.66675 16.5523 1.66675 16Z" fill="#56BB97"/>
<path fill-rule="evenodd" clip-rule="evenodd" d="M21.8928 10.1078C21.5022 9.71728 21.5022 9.08412 21.8928 8.69358L24.7212 5.86516C25.1117 5.47464 25.7449 5.47464 26.1354 5.86516C26.526 6.25569 26.526 6.88885 26.1354 7.27937L23.307 10.1078C22.9165 10.4983 22.2833 10.4983 21.8928 10.1078Z" fill="#56BB97"/>
<path fill-rule="evenodd" clip-rule="evenodd" d="M5.86467 26.1362C5.47415 25.7456 5.47415 25.1126 5.86467 24.722L8.69309 21.8935C9.08363 21.503 9.71679 21.503 10.1073 21.8935C10.4978 22.284 10.4978 22.9172 10.1073 23.3078L7.27888 26.1362C6.88836 26.5267 6.2552 26.5267 5.86467 26.1362Z" fill="#56BB97"/>
<path fill-rule="evenodd" clip-rule="evenodd" d="M10.1076 10.1078C9.71703 10.4983 9.08387 10.4983 8.69334 10.1078L5.86491 7.27937C5.47439 6.88885 5.47439 6.25568 5.86491 5.86516C6.25544 5.47464 6.8886 5.47464 7.27912 5.86516L10.1076 8.69358C10.4981 9.0841 10.4981 9.71728 10.1076 10.1078Z" fill="#56BB97"/>
<path fill-rule="evenodd" clip-rule="evenodd" d="M26.1348 26.1352C25.7443 26.5257 25.1112 26.5257 24.7207 26.1352L21.8923 23.3068C21.5017 22.9162 21.5017 22.283 21.8923 21.8925C22.2827 21.502 22.9159 21.502 23.3064 21.8925L26.1348 24.7209C26.5253 25.1114 26.5253 25.7446 26.1348 26.1352Z" fill="#56BB97"/>
</svg>
