<svg width="187" height="32" viewBox="0 0 187 32" fill="none" xmlns="http://www.w3.org/2000/svg">
<path d="M57.0614 0H51.102V31.5905H57.0614V0Z" fill="black"/>
<path d="M71.5428 8.91797C69.5108 8.91797 67.7064 9.38811 66.1293 10.3436C64.5523 11.299 63.324 12.6488 62.4597 14.4232C61.5953 16.1824 61.1708 18.1843 61.1708 20.4137V20.99C61.1708 24.3265 62.2019 26.9957 64.249 28.9976C66.2961 30.9995 68.9498 32.0004 72.2252 32.0004C74.0751 32.0004 75.7583 31.6516 77.2899 30.9388C78.8214 30.226 80.0194 29.2554 80.914 27.9815L77.9874 24.7057C76.6985 26.3587 74.9092 27.1929 72.6194 27.1929C71.1334 27.1929 69.9203 26.753 68.9498 25.8734C67.9793 24.9938 67.4031 23.826 67.2059 22.3701H81.3689V19.9436C81.3689 16.4251 80.4894 13.6952 78.7456 11.7843C76.9866 9.88859 74.5907 8.91797 71.5428 8.91797ZM75.5157 18.3511H67.2514C67.4637 16.8649 67.9338 15.7275 68.6617 14.9237C69.3895 14.1199 70.3448 13.7256 71.5276 13.7256C72.7862 13.7256 73.7567 14.0895 74.4542 14.8175C75.1366 15.5455 75.5005 16.5616 75.5309 17.881V18.3511H75.5157Z" fill="black"/>
<path d="M94.3037 8.91797C92.2717 8.91797 90.4672 9.38811 88.8902 10.3436C87.3131 11.299 86.0849 12.6488 85.2205 14.4232C84.3562 16.1824 83.9316 18.1843 83.9316 20.4137V20.99C83.9316 24.3265 84.9627 26.9957 87.0098 28.9976C89.057 30.9995 91.7106 32.0004 94.986 32.0004C96.836 32.0004 98.5192 31.6516 100.051 30.9388C101.582 30.226 102.78 29.2554 103.675 27.9815L100.748 24.7057C99.4593 26.3587 97.67 27.1929 95.3803 27.1929C93.8942 27.1929 92.6811 26.753 91.7106 25.8734C90.7401 24.9938 90.1639 23.826 89.9668 22.3701H104.13V19.9436C104.13 16.4251 103.25 13.6952 101.506 11.7843C99.7475 9.88859 97.3516 8.91797 94.3037 8.91797ZM98.2766 18.3511H90.0123C90.2246 16.8649 90.6947 15.7275 91.4225 14.9237C92.1504 14.1199 93.1057 13.7256 94.2885 13.7256C95.5471 13.7256 96.5176 14.0895 97.2151 14.8175C97.8975 15.5455 98.2614 16.5616 98.2917 17.881V18.3511H98.2766Z" fill="black"/>
<path d="M132.228 8.91797C129.332 8.91797 127.103 10.0554 125.541 12.3151C124.464 10.0554 122.508 8.91797 119.642 8.91797C116.958 8.91797 114.82 9.88859 113.243 11.8147L113.061 9.32745H107.481V31.5758H113.425V15.8639C114.183 14.4687 115.396 13.771 117.08 13.771C118.293 13.771 119.157 14.0592 119.673 14.6355C120.173 15.2118 120.431 16.1369 120.431 17.426V31.591H126.375L126.36 16.3038C127.042 14.6052 128.286 13.7559 130.06 13.7559C131.303 13.7559 132.183 14.044 132.668 14.6355C133.168 15.2118 133.411 16.1369 133.411 17.3957V31.591H139.37V17.3805C139.37 14.5597 138.779 12.4365 137.596 11.0412C136.444 9.63076 134.639 8.91797 132.228 8.91797Z" fill="black"/>
<path d="M160.888 11.6782C158.992 9.84309 156.536 8.91797 153.533 8.91797C151.426 8.91797 149.561 9.38811 147.968 10.3436C146.376 11.2838 145.148 12.6336 144.299 14.3474C143.45 16.0763 143.025 18.0478 143.025 20.2469V20.5199C143.025 24.0535 143.98 26.8592 145.891 28.9066C147.802 30.9692 150.364 31.9853 153.579 31.9853C156.794 31.9853 159.341 30.954 161.252 28.8914C163.162 26.8289 164.118 24.0839 164.118 20.6715L164.072 19.1549C163.845 16.0156 162.783 13.5132 160.888 11.6782ZM156.945 25.5549C156.142 26.662 155.019 27.208 153.579 27.208C152.093 27.208 150.956 26.6469 150.167 25.5246C149.379 24.4023 148.969 22.7948 148.969 20.6715C148.969 18.2905 149.363 16.5464 150.167 15.409C150.956 14.2715 152.093 13.7104 153.533 13.7104C155.004 13.7104 156.142 14.2867 156.945 15.4241C157.749 16.5616 158.158 18.1692 158.158 20.2469C158.158 22.6734 157.764 24.4478 156.945 25.5549Z" fill="black"/>
<path d="M185.089 10.9957C183.937 9.6156 182.178 8.91797 179.827 8.91797C177.159 8.91797 175.021 9.91892 173.428 11.9056L173.246 9.32745H167.651V31.5758H173.595V15.8943C174.429 14.4687 175.688 13.7559 177.356 13.7559C178.63 13.7559 179.539 14.044 180.085 14.6052C180.631 15.1815 180.904 16.0914 180.904 17.3502V31.591H186.848V17.2137C186.818 14.4535 186.242 12.391 185.089 10.9957Z" fill="black"/>
<path d="M31.5862 0H17.3777C7.77903 0 0 7.78009 0 17.3801V31.5905H14.2085C23.8072 31.5905 31.5862 23.8104 31.5862 14.2104V0Z" fill="#F9F84A"/>
<path d="M30.8128 30.5893C30.8128 30.4984 30.7977 30.4074 30.7522 30.3315C30.7219 30.2557 30.646 30.2102 30.5551 30.1799C30.737 30.104 30.828 29.9676 30.828 29.8007C30.828 29.6339 30.7825 29.5126 30.6764 29.4367C30.5702 29.3609 30.4337 29.3154 30.2366 29.3154H29.7362V30.9382H29.9182V30.2709H30.2821C30.4034 30.2709 30.4792 30.3012 30.5247 30.3467C30.5702 30.3922 30.6005 30.468 30.6005 30.5893C30.6005 30.7713 30.6157 30.8927 30.6309 30.9382H30.828V30.9078C30.8128 30.8775 30.8128 30.8472 30.7977 30.8017C30.8128 30.7713 30.8128 30.6955 30.8128 30.5893ZM30.5399 30.0282C30.4792 30.0889 30.3882 30.104 30.2821 30.104H29.9333V29.4974H30.2669C30.4034 29.4974 30.4944 29.5277 30.5551 29.5732C30.6157 29.6187 30.646 29.6946 30.646 29.8007C30.646 29.9069 30.6157 29.9676 30.5399 30.0282Z" fill="white"/>
</svg>
