<svg width="1118" height="797" viewBox="0 0 1118 797" fill="none" xmlns="http://www.w3.org/2000/svg">
<path d="M817 29H754.024C711.479 29 677 63.4791 677 106.023V169H739.976C782.521 169 817 134.521 817 91.9765V29Z" fill="#F9F84A"/>
<path d="M1197 -51H1062.05C970.884 -51 897 22.8838 897 114.05V249H1031.95C1123.12 249 1197 175.116 1197 83.9496V-51Z" fill="#F9F84A"/>
<path d="M597 549H731.95C823.116 549 897 475.116 897 383.95V249H762.05C670.884 249 597 322.884 597 414.05V549Z" fill="#F9F84A"/>
<path d="M677 769H739.976C782.521 769 817 734.521 817 691.977V629H754.024C711.479 629 677 663.479 677 706.024V769Z" fill="#F9F84A"/>
<path d="M977 469H1039.98C1082.52 469 1117 434.521 1117 391.977V329H1054.02C1011.48 329 977 363.479 977 406.024V469Z" fill="#F9F84A"/>
<path d="M897 849H1031.95C1123.12 849 1197 775.116 1197 683.95V549H1062.05C970.884 549 897 622.884 897 714.05V849Z" fill="#F9F84A"/>
<path d="M597 -51H462.05C370.884 -51 297 22.8838 297 114.05V249H431.95C523.116 249 597 175.116 597 83.9496V-51Z" fill="#F9F84A"/>
<path d="M377 469H439.976C482.521 469 517 434.521 517 391.977V329H454.024C411.479 329 377 363.479 377 406.024V469Z" fill="#F9F84A"/>
<path d="M297 849H431.95C523.116 849 597 775.116 597 683.95V549H462.05C370.884 549 297 622.884 297 714.05V849Z" fill="#F9F84A"/>
<path d="M220 29H157.024C114.479 29 80 63.4791 80 106.023V169H142.976C185.521 169 220 134.521 220 91.9765V29Z" fill="#F9F84A"/>
<path d="M0 549H134.95C226.116 549 300 475.116 300 383.95V249H165.05C73.8839 249 0 322.884 0 414.05V549Z" fill="#F9F84A"/>
<path d="M80 769H142.976C185.521 769 220 734.521 220 691.977V629H157.024C114.479 629 80 663.479 80 706.024V769Z" fill="#F9F84A"/>
</svg>
