<svg xmlns="http://www.w3.org/2000/svg" width="21" height="20" viewBox="0 0 21 20" fill="none">
<path d="M19.7915 16.7564C19.3875 17.8972 17.7842 18.8432 16.5054 19.1195C15.6304 19.3058 14.4876 19.4544 10.6406 17.8595C5.71974 15.8208 2.55083 10.8205 2.30385 10.496C2.06733 10.1716 0.31543 7.84831 0.31543 5.44546C0.31543 3.04261 1.53569 1.87258 2.02756 1.37024C2.43153 0.957908 3.09922 0.769531 3.7397 0.769531C3.94691 0.769531 4.1332 0.779997 4.30064 0.788369C4.79251 0.8093 5.0395 0.838603 5.36392 1.61513C5.76789 2.58841 6.75163 4.99126 6.86884 5.23824C6.98815 5.48523 7.10745 5.82012 6.94001 6.14455C6.78303 6.47944 6.64488 6.62804 6.3979 6.9127C6.15092 7.19736 5.91649 7.41504 5.66951 7.72063C5.44346 7.98645 5.18811 8.27111 5.47276 8.76298C5.75742 9.24439 6.74117 10.8498 8.18957 12.1391C10.0587 13.8031 11.5741 14.3347 12.1162 14.5608C12.5201 14.7282 13.0015 14.6885 13.2967 14.3745C13.6713 13.9705 14.1339 13.3008 14.6048 12.6414C14.9397 12.1684 15.3625 12.1098 15.8063 12.2772C16.2584 12.4342 18.6508 13.6168 19.1426 13.8617C19.6345 14.1087 19.9589 14.2259 20.0782 14.4331C20.1954 14.6403 20.1954 15.6136 19.7915 16.7564Z" fill="black"/>
</svg>