<svg width="0" height="0" class="hidden">
  <symbol fill="none" xmlns="http://www.w3.org/2000/svg" viewBox="0 0 33 32" id="home">
    <g clip-path="url(#clip0_401_2744)">
      <path d="M25.04 28H8.96C6.8 28 5 26.176 5 23.992V15.232C5 14.128 5.48 13.048 6.32 12.304L14.36 5.008C15.92 3.664 18.08 3.664 19.64 5.008L27.68 12.304C28.52 13.024 29 14.128 29 15.232V23.992C28.88 26.296 27.2 28 25.04 28ZM17 6.472C16.64 6.472 16.28 6.592 15.92 6.832L7.88 14.128C7.52 14.368 7.4 14.848 7.4 15.352V24.112C7.4 24.952 8.12 25.696 8.96 25.696H24.92C25.76 25.696 26.48 24.976 26.48 24.112V15.352C26.48 14.872 26.24 14.512 26 14.128L17.96 6.832C17.72 6.592 17.36 6.472 17 6.472Z" fill="black"></path>
    </g>
    <defs>
      <clipPath id="clip0_401_2744">
        <rect width="24" height="24" fill="white" transform="translate(5 4)"></rect>
      </clipPath>
    </defs>
  </symbol>
  <symbol fill="none" xmlns="http://www.w3.org/2000/svg" viewBox="0 0 33 32" id="leaf">
    <path d="M18.204 5.15H27.85V14.796C27.85 21.4542 22.4542 26.85 15.796 26.85H6.15V17.204C6.15 10.5458 11.5458 5.15 18.204 5.15Z" stroke="black" stroke-width="2.3"></path>
  </symbol>
  <symbol fill="none" xmlns="http://www.w3.org/2000/svg" viewBox="0 0 33 32" id="catalog">
    <path d="M25.25 4H21.6875C19.6198 4 17.9375 5.68225 17.9375 7.75V11.3125C17.9375 13.3802 19.6198 15.0625 21.6875 15.0625H25.25C27.3177 15.0625 29 13.3802 29 11.3125V7.75C29 5.68225 27.3177 4 25.25 4ZM27.125 11.3125C27.125 12.3464 26.2839 13.1875 25.25 13.1875H21.6875C20.6536 13.1875 19.8125 12.3464 19.8125 11.3125V7.75C19.8125 6.71613 20.6536 5.875 21.6875 5.875H25.25C26.2839 5.875 27.125 6.71613 27.125 7.75V11.3125Z" fill="black" stroke="black" stroke-width="0.5"></path>
    <path d="M12.3125 4H8.75C6.68225 4 5 5.68225 5 7.75V11.3125C5 13.3802 6.68225 15.0625 8.75 15.0625H12.3125C14.3802 15.0625 16.0625 13.3802 16.0625 11.3125V7.75C16.0625 5.68225 14.3802 4 12.3125 4ZM14.1875 11.3125C14.1875 12.3464 13.3464 13.1875 12.3125 13.1875H8.75C7.71613 13.1875 6.875 12.3464 6.875 11.3125V7.75C6.875 6.71613 7.71613 5.875 8.75 5.875H12.3125C13.3464 5.875 14.1875 6.71613 14.1875 7.75V11.3125Z" fill="black" stroke="black" stroke-width="0.5"></path>
    <path d="M12.3125 16.9375H8.75C6.68225 16.9375 5 18.6198 5 20.6875V24.25C5 26.3177 6.68225 28 8.75 28H12.3125C14.3802 28 16.0625 26.3177 16.0625 24.25V20.6875C16.0625 18.6198 14.3802 16.9375 12.3125 16.9375ZM14.1875 24.25C14.1875 25.2839 13.3464 26.125 12.3125 26.125H8.75C7.71613 26.125 6.875 25.2839 6.875 24.25V20.6875C6.875 19.6536 7.71613 18.8125 8.75 18.8125H12.3125C13.3464 18.8125 14.1875 19.6536 14.1875 20.6875V24.25Z" fill="black" stroke="black" stroke-width="0.5"></path>
    <path d="M28.0625 23.3125C27.5447 23.3125 27.125 23.7322 27.125 24.25C27.125 25.2839 26.2839 26.125 25.25 26.125H21.6875C20.6536 26.125 19.8125 25.2839 19.8125 24.25V20.6875C19.8125 19.6536 20.6536 18.8125 21.6875 18.8125H25.25C25.9955 18.8125 26.6704 19.254 26.9691 19.9373C27.1766 20.4117 27.7294 20.6281 28.2037 20.4207C28.6782 20.2132 28.8945 19.6605 28.6871 19.1861C28.0898 17.8201 26.7406 16.9375 25.25 16.9375H21.6875C19.6198 16.9375 17.9375 18.6198 17.9375 20.6875V24.25C17.9375 26.3177 19.6198 28 21.6875 28H25.25C27.3177 28 29 26.3177 29 24.25C29 23.7322 28.5803 23.3125 28.0625 23.3125Z" fill="black" stroke="black" stroke-width="0.5"></path>
  </symbol>
  <symbol fill="none" xmlns="http://www.w3.org/2000/svg" viewBox="0 0 33 32" id="basket">
    <g clip-path="url(#clip0_401_2774)">
      <path d="M28.0139 9.00694H9.24886L8.96992 5.8995C8.9243 5.39133 8.49841 5.00195 7.98823 5.00195H5.98564C5.44129 5.00195 5 5.44324 5 5.98759C5 6.53195 5.44129 6.97323 5.98564 6.97323H7.08712C7.68906 13.6794 6.13335 -3.65361 8.22074 19.603C8.30119 20.5132 8.79302 21.501 9.6403 22.1722C8.1127 24.123 9.50846 26.9989 11.9933 26.9989C14.0558 26.9989 15.5104 24.942 14.8032 22.9938H20.1977C19.4913 24.9395 20.9429 26.9989 23.0075 26.9989C24.6553 26.9989 25.9958 25.6584 25.9958 24.0107C25.9958 22.363 24.6553 21.0225 23.0075 21.0225H12C11.2513 21.0225 10.5989 20.5708 10.3172 19.9127L26.0691 18.9869C26.4991 18.9617 26.8629 18.66 26.9675 18.2421L28.9702 10.2316C29.1255 9.61048 28.6553 9.00694 28.0139 9.00694ZM11.9933 25.0277C11.4327 25.0277 10.9765 24.5715 10.9765 24.0107C10.9765 23.45 11.4327 22.9938 11.9933 22.9938C12.5541 22.9938 13.0103 23.45 13.0103 24.0107C13.0103 24.5715 12.5541 25.0277 11.9933 25.0277ZM23.0075 25.0277C22.4468 25.0277 21.9906 24.5715 21.9906 24.0107C21.9906 23.45 22.4468 22.9938 23.0075 22.9938C23.5682 22.9938 24.0244 23.45 24.0244 24.0107C24.0244 24.5715 23.5682 25.0277 23.0075 25.0277ZM25.2306 17.0615L10.0519 17.9535L9.4258 10.9782H26.7516L25.2306 17.0615Z" fill="black"></path>
    </g>
    <defs>
      <clipPath id="clip0_401_2774">
        <rect width="24" height="24" fill="white" transform="translate(5 4)"></rect>
      </clipPath>
    </defs>
  </symbol>
  <symbol fill="none" xmlns="http://www.w3.org/2000/svg" viewBox="0 0 33 32" id="tel">
    <g clip-path="url(#clip0_401_2779)">
      <path d="M20.5103 28C10.8942 27.9277 -0.371391 13.9162 7.86066 5.67744C8.15314 5.38014 8.46272 5.09413 8.78078 4.82729C9.45341 4.26301 10.3056 3.97199 11.1799 4.00779C12.0577 4.04373 12.8831 4.40608 13.5039 5.02801C13.508 5.03204 13.512 5.03616 13.516 5.04029L15.1016 6.68806C16.8177 8.36718 16.2095 11.3952 13.9723 12.2714C13.2797 12.5539 12.8379 12.8048 12.7198 12.8897C11.8466 13.7794 11.2908 15.225 14.5568 18.4966C15.6166 19.5583 17.1863 20.9697 18.5761 20.9697C19.1399 20.9697 19.6574 20.7311 20.157 20.2406C20.222 20.1453 20.4465 19.7628 20.7361 19.0413C21.6033 16.7887 24.6373 16.1625 26.3226 17.8905L27.9512 19.4665C27.9551 19.4703 27.9589 19.4741 27.9627 19.4779C28.5811 20.0973 28.9429 20.9204 28.9816 21.7955C29.0202 22.67 28.7326 23.5217 28.172 24.1938C27.9232 24.4919 27.6576 24.783 27.3822 25.0588C25.4428 27.0016 23.0949 27.9999 20.5103 28ZM11.0369 5.87699C10.6664 5.87699 10.2937 6.00488 9.98555 6.26338C9.71304 6.49203 9.44765 6.73717 9.19684 6.99211C4.8083 11.4495 7.22032 17.5381 11.4367 21.7066C15.6151 25.8639 21.6731 28.137 26.0557 23.7343C26.2917 23.4979 26.5194 23.2484 26.7326 22.9929C27.2736 22.3445 27.2339 21.4061 26.6412 20.8073L25.0136 19.2321C25.0097 19.2284 25.0058 19.2246 25.002 19.2208C24.629 18.8471 24.1186 18.6932 23.602 18.7988C23.0838 18.9045 22.6733 19.2475 22.4758 19.7396C22.3447 20.066 21.888 21.1602 21.5112 21.5376C20.6457 22.4046 19.6582 22.8442 18.5761 22.8442C16.5128 22.8442 14.6353 21.2285 13.2301 19.821C11.0981 17.7755 8.63396 14.2875 11.4163 11.5419C11.8107 11.1467 12.9306 10.6718 13.2644 10.5357C13.7493 10.3379 14.0872 9.92867 14.1915 9.41294C14.2965 8.89322 14.1424 8.38044 13.7687 8.006C13.7646 8.00197 13.7606 7.99785 13.7566 7.99372L12.1719 6.34694C11.8576 6.03492 11.4486 5.87699 11.0369 5.87699ZM28.0515 15.2053C27.5719 15.2053 27.1631 14.8391 27.1191 14.3521C26.7128 9.84394 23.146 6.27706 18.6378 5.8708C18.1223 5.82436 17.742 5.36875 17.7885 4.85321C17.8349 4.33762 18.2908 3.95732 18.8061 4.00385C24.0772 4.39798 28.5919 8.91281 28.9861 14.1838C29.0326 14.6994 28.6523 15.155 28.1367 15.2014C28.1082 15.2041 28.0797 15.2053 28.0515 15.2053ZM20.7492 15.2039C21.2403 15.0401 21.5055 14.5093 21.3417 14.0182C20.974 12.9162 20.1115 12.0311 19.0343 11.6503C18.5463 11.4777 18.0107 11.7336 17.8383 12.2217C17.6657 12.7097 17.9216 13.2452 18.4096 13.4177C18.946 13.6073 19.3774 14.0536 19.5635 14.6114C19.6945 15.004 20.0601 15.2523 20.4525 15.2523C20.5508 15.2524 20.6508 15.2368 20.7492 15.2039ZM24.4314 15.1958C24.9439 15.1225 25.2998 14.6477 25.2266 14.1352C24.757 10.8531 22.1369 8.23287 18.8547 7.76334C17.6177 7.63648 17.365 9.39358 18.5892 9.619C21.0522 9.97132 23.0185 11.9376 23.3709 14.4006C23.4377 14.8681 23.8387 15.2053 24.2975 15.2053C24.3417 15.2054 24.3864 15.2022 24.4314 15.1958Z" fill="black"></path>
    </g>
    <defs>
      <clipPath id="clip0_401_2779">
        <rect width="24" height="24" fill="white" transform="translate(5 4)"></rect>
      </clipPath>
    </defs>
  </symbol>
  <symbol fill="none" xmlns="http://www.w3.org/2000/svg" viewBox="0 0 21 20" id="phone">
    <path d="M19.7915 16.7564C19.3875 17.8972 17.7842 18.8432 16.5054 19.1195C15.6304 19.3058 14.4876 19.4544 10.6406 17.8595C5.71974 15.8208 2.55083 10.8205 2.30385 10.496C2.06733 10.1716 0.31543 7.84831 0.31543 5.44546C0.31543 3.04261 1.53569 1.87258 2.02756 1.37024C2.43153 0.957908 3.09922 0.769531 3.7397 0.769531C3.94691 0.769531 4.1332 0.779997 4.30064 0.788369C4.79251 0.8093 5.0395 0.838603 5.36392 1.61513C5.76789 2.58841 6.75163 4.99126 6.86884 5.23824C6.98815 5.48523 7.10745 5.82012 6.94001 6.14455C6.78303 6.47944 6.64488 6.62804 6.3979 6.9127C6.15092 7.19736 5.91649 7.41504 5.66951 7.72063C5.44346 7.98645 5.18811 8.27111 5.47276 8.76298C5.75742 9.24439 6.74117 10.8498 8.18957 12.1391C10.0587 13.8031 11.5741 14.3347 12.1162 14.5608C12.5201 14.7282 13.0015 14.6885 13.2967 14.3745C13.6713 13.9705 14.1339 13.3008 14.6048 12.6414C14.9397 12.1684 15.3625 12.1098 15.8063 12.2772C16.2584 12.4342 18.6508 13.6168 19.1426 13.8617C19.6345 14.1087 19.9589 14.2259 20.0782 14.4331C20.1954 14.6403 20.1954 15.6136 19.7915 16.7564Z" fill="black"></path>
  </symbol>
  <symbol fill="none" xmlns="http://www.w3.org/2000/svg" viewBox="0 0 30 30" id="telegram">
    <g clip-path="url(#clip0_401_1908)">
      <path d="M15.0019 29.1803C22.8333 29.1803 29.1819 22.8317 29.1819 15.0003C29.1819 7.16891 22.8333 0.820312 15.0019 0.820312C7.1705 0.820312 0.821899 7.16891 0.821899 15.0003C0.821899 22.8317 7.1705 29.1803 15.0019 29.1803Z" fill="black"></path>
      <path fill-rule="evenodd" clip-rule="evenodd" d="M7.24064 14.8504C11.3744 13.0494 14.1309 11.862 15.5101 11.2884C19.448 9.65047 20.2663 9.36594 20.7996 9.35655C20.9169 9.35448 21.1792 9.38355 21.3491 9.52141C21.4926 9.63781 21.532 9.79505 21.5509 9.90542C21.5698 10.0158 21.5933 10.2672 21.5746 10.4636C21.3612 12.7058 20.4379 18.147 19.9681 20.6583C19.7693 21.7209 19.378 22.0772 18.999 22.1121C18.1756 22.1879 17.5503 21.5679 16.7527 21.0451C15.5047 20.227 14.7996 19.7177 13.5882 18.9194C12.1882 17.9968 13.0958 17.4898 13.8936 16.6611C14.1024 16.4442 17.7306 13.1441 17.8009 12.8447C17.8096 12.8073 17.8178 12.6677 17.7349 12.594C17.652 12.5203 17.5296 12.5455 17.4413 12.5656C17.3161 12.594 15.3224 13.9118 11.4601 16.5189C10.8942 16.9075 10.3816 17.0969 9.92231 17.0869C9.41601 17.076 8.44209 16.8007 7.71809 16.5653C6.83006 16.2767 6.12428 16.1241 6.18574 15.6338C6.21775 15.3785 6.56938 15.1173 7.24064 14.8504Z" fill="white"></path>
    </g>
    <defs>
      <clipPath id="clip0_401_1908">
        <rect width="28.36" height="28.36" fill="white" transform="translate(0.821899 0.820312)"></rect>
      </clipPath>
    </defs>
  </symbol>
  <symbol fill="none" xmlns="http://www.w3.org/2000/svg" viewBox="0 0 30 30" id="whats-app">
    <g clip-path="url(#clip0_401_1913)">
      <path fill-rule="evenodd" clip-rule="evenodd" d="M14.9965 0.818359H15.0036C22.8231 0.818359 29.1819 7.18068 29.1819 15.0002C29.1819 22.8197 22.8231 29.182 15.0036 29.182C12.1194 29.182 9.44433 28.324 7.20183 26.8385L1.75069 28.581L3.5181 23.3125C1.81806 20.9778 0.818237 18.1024 0.818237 15.0002C0.818237 7.1789 7.17701 0.818359 14.9965 0.818359ZM20.4722 22.8462C21.5553 22.6122 22.9132 21.8109 23.2554 20.8448C23.5975 19.8769 23.5975 19.0525 23.4982 18.8771C23.418 18.7378 23.2285 18.6465 22.9455 18.5103C22.8719 18.4748 22.7919 18.4363 22.7058 18.3931C22.2892 18.1857 20.263 17.1841 19.8801 17.0511C19.5043 16.9093 19.1462 16.959 18.8625 17.3596C18.8086 17.4351 18.7548 17.5108 18.7013 17.5861C18.3591 18.0673 18.029 18.5315 17.7546 18.8274C17.5046 19.0933 17.0969 19.127 16.7548 18.9852C16.7175 18.9696 16.6747 18.9524 16.6268 18.933C16.0851 18.7142 14.8836 18.229 13.4291 16.9341C12.2024 15.8421 11.3692 14.4825 11.1281 14.0747C10.8914 13.6657 11.0956 13.4259 11.2843 13.2042C11.2878 13.2001 11.2913 13.196 11.2948 13.1919C11.4164 13.0414 11.5345 12.916 11.6532 12.7901C11.7385 12.6994 11.8242 12.6085 11.9117 12.5076C11.9247 12.4927 11.9373 12.4781 11.9496 12.464C12.1355 12.2503 12.2461 12.1231 12.3708 11.8571C12.5126 11.5823 12.4116 11.2986 12.3105 11.0895C12.241 10.943 11.8115 9.90094 11.4429 9.00643C11.2851 8.62366 11.1385 8.2679 11.0359 8.02087C10.7612 7.36319 10.552 7.33837 10.1354 7.32064C10.1226 7.32 10.1097 7.31935 10.0967 7.31869C9.96503 7.31203 9.82001 7.30469 9.66031 7.30469C9.11786 7.30469 8.55236 7.46423 8.21022 7.81346C8.19827 7.82567 8.1858 7.83835 8.17287 7.8515C7.73516 8.29665 6.76013 9.28827 6.76013 11.265C6.76013 13.2455 8.16537 15.1622 8.42539 15.5168C8.43255 15.5266 8.43885 15.5352 8.44422 15.5426C8.45987 15.5631 8.48936 15.6058 8.53227 15.668C9.06317 16.4368 11.649 20.1815 15.505 21.779C18.7633 23.1298 19.7312 23.004 20.4722 22.8462Z" fill="black"></path>
    </g>
    <defs>
      <clipPath id="clip0_401_1913">
        <rect width="28.3636" height="28.3636" fill="white" transform="translate(0.818237 0.818359)"></rect>
      </clipPath>
    </defs>
  </symbol>
  <symbol fill="none" xmlns="http://www.w3.org/2000/svg" viewBox="0 0 32 32" id="oil">
    <g clip-path="url(#clip0_108_2107)">
      <path d="M16 31.0625C24.3188 31.0625 31.0625 24.3188 31.0625 16C31.0625 7.68121 24.3188 0.9375 16 0.9375C7.68121 0.9375 0.9375 7.68121 0.9375 16C0.9375 24.3188 7.68121 31.0625 16 31.0625Z" stroke="black" stroke-width="1.5" stroke-miterlimit="10" stroke-linecap="round" stroke-linejoin="round"></path>
      <path d="M26.6507 5.34961L22.5271 9.47323" stroke="black" stroke-width="1.5" stroke-miterlimit="10" stroke-linecap="round" stroke-linejoin="round"></path>
      <path d="M8.46874 23.5312L5.3493 26.6507" stroke="black" stroke-width="1.5" stroke-miterlimit="10" stroke-linecap="round" stroke-linejoin="round"></path>
      <path d="M16 7.46484C16 7.46484 22.025 12.4857 22.025 17.5065C22.025 20.8318 19.3253 23.5315 16 23.5315C12.6747 23.5315 9.97501 20.8318 9.97501 17.5065C9.97501 12.4857 16 7.46484 16 7.46484Z" stroke="black" stroke-width="1.5" stroke-miterlimit="10" stroke-linecap="round" stroke-linejoin="round"></path>
    </g>
    <defs>
      <clipPath id="clip0_108_2107">
        <rect width="32" height="32" fill="white"></rect>
      </clipPath>
    </defs>
  </symbol>
  <symbol fill="none" xmlns="http://www.w3.org/2000/svg" viewBox="0 0 32 32" id="spike">
    <path fill-rule="evenodd" clip-rule="evenodd" d="M16 7.66699C15.4477 7.66699 15 7.21927 15 6.66699V2.66699C15 2.11471 15.4477 1.66699 16 1.66699C16.5523 1.66699 17 2.11471 17 2.66699V6.66699C17 7.21927 16.5523 7.66699 16 7.66699Z" fill="black"></path>
    <path fill-rule="evenodd" clip-rule="evenodd" d="M16 30.334C15.4477 30.334 15 29.8863 15 29.334V25.334C15 24.7817 15.4477 24.334 16 24.334C16.5523 24.334 17 24.7817 17 25.334V29.334C17 29.8863 16.5523 30.334 16 30.334Z" fill="black"></path>
    <path fill-rule="evenodd" clip-rule="evenodd" d="M24.3333 16C24.3333 15.4477 24.7811 15 25.3333 15H29.3333C29.8856 15 30.3333 15.4477 30.3333 16C30.3333 16.5523 29.8856 17 29.3333 17H25.3333C24.7811 17 24.3333 16.5523 24.3333 16Z" fill="black"></path>
    <path fill-rule="evenodd" clip-rule="evenodd" d="M1.66666 16C1.66666 15.4477 2.11438 15 2.66666 15H6.66666C7.21894 15 7.66666 15.4477 7.66666 16C7.66666 16.5523 7.21894 17 6.66666 17H2.66666C2.11438 17 1.66666 16.5523 1.66666 16Z" fill="black"></path>
    <path fill-rule="evenodd" clip-rule="evenodd" d="M21.8927 10.1078C21.5021 9.71728 21.5021 9.08412 21.8927 8.69358L24.7211 5.86516C25.1116 5.47464 25.7448 5.47464 26.1353 5.86516C26.5259 6.25569 26.5259 6.88885 26.1353 7.27937L23.3069 10.1078C22.9164 10.4983 22.2832 10.4983 21.8927 10.1078Z" fill="black"></path>
    <path fill-rule="evenodd" clip-rule="evenodd" d="M5.86465 26.1362C5.47413 25.7456 5.47413 25.1126 5.86465 24.722L8.69308 21.8935C9.08361 21.503 9.71677 21.503 10.1073 21.8935C10.4978 22.284 10.4978 22.9172 10.1073 23.3078L7.27887 26.1362C6.88835 26.5267 6.25519 26.5267 5.86465 26.1362Z" fill="black"></path>
    <path fill-rule="evenodd" clip-rule="evenodd" d="M10.1075 10.1078C9.71697 10.4983 9.08381 10.4983 8.69328 10.1078L5.86485 7.27937C5.47433 6.88885 5.47433 6.25568 5.86485 5.86516C6.25538 5.47464 6.88854 5.47464 7.27906 5.86516L10.1075 8.69358C10.498 9.0841 10.498 9.71728 10.1075 10.1078Z" fill="black"></path>
    <path fill-rule="evenodd" clip-rule="evenodd" d="M26.1348 26.1352C25.7443 26.5257 25.1112 26.5257 24.7207 26.1352L21.8923 23.3068C21.5017 22.9162 21.5017 22.283 21.8923 21.8925C22.2827 21.502 22.9159 21.502 23.3064 21.8925L26.1348 24.7209C26.5253 25.1114 26.5253 25.7446 26.1348 26.1352Z" fill="black"></path>
  </symbol>
  <symbol fill="none" xmlns="http://www.w3.org/2000/svg" viewBox="0 0 34 34" id="guarant">
    <mask id="mask0_108_2090" maskUnits="userSpaceOnUse" x="0" y="0" width="34" height="34">
      <path d="M0.200195 0.19883H33.8002V33.7988H0.200195V0.19883Z" fill="white"></path>
    </mask>
    <g mask="url(#mask0_108_2090)">
      <path d="M26.844 17C26.844 22.4366 22.4368 26.8438 17.0002 26.8438C11.5637 26.8438 7.15649 22.4366 7.15649 17C7.15649 11.5634 11.5637 7.15625 17.0002 7.15625C22.4368 7.15625 26.844 11.5634 26.844 17Z" stroke="black" stroke-width="1.5" stroke-miterlimit="10" stroke-linecap="round" stroke-linejoin="round"></path>
      <path d="M21.9221 14.0469L16.0159 19.9531L12.0784 16.0156" stroke="black" stroke-width="1.5" stroke-miterlimit="10" stroke-linecap="round" stroke-linejoin="round"></path>
      <path d="M15.7235 1.65325C16.4593 1.02653 17.5411 1.02653 18.2769 1.65325L20.8351 3.91108L25.1643 3.57606C26.128 3.50151 27.0032 4.13735 27.23 5.07684L28.098 8.67151L31.8805 10.9357C32.7039 11.4418 33.0382 12.4707 32.6695 13.364L31.1752 16.985L32.6695 20.606C33.0382 21.4994 32.7039 22.5283 31.8805 23.0344L28.098 25.2986L27.23 28.8933C27.0032 29.8327 26.128 30.4686 25.1643 30.394L20.8774 30.0622L18.2769 32.3444C17.5411 32.9711 16.4593 32.9711 15.7235 32.3444L13.1229 30.0622L8.83605 30.394C7.87241 30.4686 6.99717 29.8327 6.77037 28.8933L5.89894 25.2843L2.12274 23.0344C1.29928 22.5283 0.964989 21.4994 1.33374 20.606L2.82802 16.985L1.33374 13.364C0.964989 12.4707 1.29928 11.4418 2.12274 10.9357L5.57528 8.8846L6.77037 5.07684C6.99717 4.13735 7.87241 3.50151 8.83605 3.57606L13.1653 3.91108L15.7235 1.65325Z" stroke="black" stroke-width="1.5" stroke-miterlimit="10" stroke-linecap="round" stroke-linejoin="round"></path>
    </g>
  </symbol>
  <symbol xmlns="http://www.w3.org/2000/svg"  viewBox="0 0 24 24" fill="none" id="arrow">
    <path d="M12.6 12L8 7.4L9.4 6L15.4 12L9.4 18L8 16.6L12.6 12Z" fill="#1C1B1F"/>
  </symbol>

  <symbol xmlns="http://www.w3.org/2000/svg" viewBox="0 0 24 24" fill="none" id="close">
    <line x1="1.74793" y1="22.1112" x2="21.9169" y2="1.94225" stroke="currentColor" stroke-width="3"/>
    <line x1="2.06066" y1="1.93934" x2="22.2296" y2="22.1083" stroke="currentColor" stroke-width="3"/>
  </symbol>
</svg>