<svg width="0" height="0" class="hidden">
  <symbol fill="none" xmlns="http://www.w3.org/2000/svg" viewBox="0 0 33 32" id="home">
    <g clip-path="url(#clip0_401_2744)">
      <path d="M25.04 28H8.96C6.8 28 5 26.176 5 23.992V15.232C5 14.128 5.48 13.048 6.32 12.304L14.36 5.008C15.92 3.664 18.08 3.664 19.64 5.008L27.68 12.304C28.52 13.024 29 14.128 29 15.232V23.992C28.88 26.296 27.2 28 25.04 28ZM17 6.472C16.64 6.472 16.28 6.592 15.92 6.832L7.88 14.128C7.52 14.368 7.4 14.848 7.4 15.352V24.112C7.4 24.952 8.12 25.696 8.96 25.696H24.92C25.76 25.696 26.48 24.976 26.48 24.112V15.352C26.48 14.872 26.24 14.512 26 14.128L17.96 6.832C17.72 6.592 17.36 6.472 17 6.472Z" fill="currentColor"></path>
    </g>
    <defs>
      <clipPath id="clip0_401_2744">
        <rect width="24" height="24" fill="white" transform="translate(5 4)"></rect>
      </clipPath>
    </defs>
  </symbol>
  <symbol fill="none" xmlns="http://www.w3.org/2000/svg" viewBox="0 0 33 32" id="leaf">
    <path d="M18.204 5.15H27.85V14.796C27.85 21.4542 22.4542 26.85 15.796 26.85H6.15V17.204C6.15 10.5458 11.5458 5.15 18.204 5.15Z" stroke="currentColor" stroke-width="2.3"></path>
  </symbol>
  <symbol fill="none" xmlns="http://www.w3.org/2000/svg" viewBox="0 0 33 32" id="catalog">
    <path d="M25.25 4H21.6875C19.6198 4 17.9375 5.68225 17.9375 7.75V11.3125C17.9375 13.3802 19.6198 15.0625 21.6875 15.0625H25.25C27.3177 15.0625 29 13.3802 29 11.3125V7.75C29 5.68225 27.3177 4 25.25 4ZM27.125 11.3125C27.125 12.3464 26.2839 13.1875 25.25 13.1875H21.6875C20.6536 13.1875 19.8125 12.3464 19.8125 11.3125V7.75C19.8125 6.71613 20.6536 5.875 21.6875 5.875H25.25C26.2839 5.875 27.125 6.71613 27.125 7.75V11.3125Z" fill="currentColor" stroke="currentColor" stroke-width="0.5"></path>
    <path d="M12.3125 4H8.75C6.68225 4 5 5.68225 5 7.75V11.3125C5 13.3802 6.68225 15.0625 8.75 15.0625H12.3125C14.3802 15.0625 16.0625 13.3802 16.0625 11.3125V7.75C16.0625 5.68225 14.3802 4 12.3125 4ZM14.1875 11.3125C14.1875 12.3464 13.3464 13.1875 12.3125 13.1875H8.75C7.71613 13.1875 6.875 12.3464 6.875 11.3125V7.75C6.875 6.71613 7.71613 5.875 8.75 5.875H12.3125C13.3464 5.875 14.1875 6.71613 14.1875 7.75V11.3125Z" fill="currentColor" stroke="currentColor" stroke-width="0.5"></path>
    <path d="M12.3125 16.9375H8.75C6.68225 16.9375 5 18.6198 5 20.6875V24.25C5 26.3177 6.68225 28 8.75 28H12.3125C14.3802 28 16.0625 26.3177 16.0625 24.25V20.6875C16.0625 18.6198 14.3802 16.9375 12.3125 16.9375ZM14.1875 24.25C14.1875 25.2839 13.3464 26.125 12.3125 26.125H8.75C7.71613 26.125 6.875 25.2839 6.875 24.25V20.6875C6.875 19.6536 7.71613 18.8125 8.75 18.8125H12.3125C13.3464 18.8125 14.1875 19.6536 14.1875 20.6875V24.25Z" fill="currentColor" stroke="currentColor" stroke-width="0.5"></path>
    <path d="M28.0625 23.3125C27.5447 23.3125 27.125 23.7322 27.125 24.25C27.125 25.2839 26.2839 26.125 25.25 26.125H21.6875C20.6536 26.125 19.8125 25.2839 19.8125 24.25V20.6875C19.8125 19.6536 20.6536 18.8125 21.6875 18.8125H25.25C25.9955 18.8125 26.6704 19.254 26.9691 19.9373C27.1766 20.4117 27.7294 20.6281 28.2037 20.4207C28.6782 20.2132 28.8945 19.6605 28.6871 19.1861C28.0898 17.8201 26.7406 16.9375 25.25 16.9375H21.6875C19.6198 16.9375 17.9375 18.6198 17.9375 20.6875V24.25C17.9375 26.3177 19.6198 28 21.6875 28H25.25C27.3177 28 29 26.3177 29 24.25C29 23.7322 28.5803 23.3125 28.0625 23.3125Z" fill="currentColor" stroke="currentColor" stroke-width="0.5"></path>
  </symbol>
  <symbol fill="none" xmlns="http://www.w3.org/2000/svg" viewBox="0 0 33 32" id="basket">
    <g clip-path="url(#clip0_401_2774)">
      <path d="M28.0139 9.00694H9.24886L8.96992 5.8995C8.9243 5.39133 8.49841 5.00195 7.98823 5.00195H5.98564C5.44129 5.00195 5 5.44324 5 5.98759C5 6.53195 5.44129 6.97323 5.98564 6.97323H7.08712C7.68906 13.6794 6.13335 -3.65361 8.22074 19.603C8.30119 20.5132 8.79302 21.501 9.6403 22.1722C8.1127 24.123 9.50846 26.9989 11.9933 26.9989C14.0558 26.9989 15.5104 24.942 14.8032 22.9938H20.1977C19.4913 24.9395 20.9429 26.9989 23.0075 26.9989C24.6553 26.9989 25.9958 25.6584 25.9958 24.0107C25.9958 22.363 24.6553 21.0225 23.0075 21.0225H12C11.2513 21.0225 10.5989 20.5708 10.3172 19.9127L26.0691 18.9869C26.4991 18.9617 26.8629 18.66 26.9675 18.2421L28.9702 10.2316C29.1255 9.61048 28.6553 9.00694 28.0139 9.00694ZM11.9933 25.0277C11.4327 25.0277 10.9765 24.5715 10.9765 24.0107C10.9765 23.45 11.4327 22.9938 11.9933 22.9938C12.5541 22.9938 13.0103 23.45 13.0103 24.0107C13.0103 24.5715 12.5541 25.0277 11.9933 25.0277ZM23.0075 25.0277C22.4468 25.0277 21.9906 24.5715 21.9906 24.0107C21.9906 23.45 22.4468 22.9938 23.0075 22.9938C23.5682 22.9938 24.0244 23.45 24.0244 24.0107C24.0244 24.5715 23.5682 25.0277 23.0075 25.0277ZM25.2306 17.0615L10.0519 17.9535L9.4258 10.9782H26.7516L25.2306 17.0615Z" fill="currentColor"></path>
    </g>
    <defs>
      <clipPath id="clip0_401_2774">
        <rect width="24" height="24" fill="white" transform="translate(5 4)"></rect>
      </clipPath>
    </defs>
  </symbol>
  <symbol fill="none" xmlns="http://www.w3.org/2000/svg" viewBox="0 0 33 32" id="tel">
    <g clip-path="url(#clip0_401_2779)">
      <path d="M20.5103 28C10.8942 27.9277 -0.371391 13.9162 7.86066 5.67744C8.15314 5.38014 8.46272 5.09413 8.78078 4.82729C9.45341 4.26301 10.3056 3.97199 11.1799 4.00779C12.0577 4.04373 12.8831 4.40608 13.5039 5.02801C13.508 5.03204 13.512 5.03616 13.516 5.04029L15.1016 6.68806C16.8177 8.36718 16.2095 11.3952 13.9723 12.2714C13.2797 12.5539 12.8379 12.8048 12.7198 12.8897C11.8466 13.7794 11.2908 15.225 14.5568 18.4966C15.6166 19.5583 17.1863 20.9697 18.5761 20.9697C19.1399 20.9697 19.6574 20.7311 20.157 20.2406C20.222 20.1453 20.4465 19.7628 20.7361 19.0413C21.6033 16.7887 24.6373 16.1625 26.3226 17.8905L27.9512 19.4665C27.9551 19.4703 27.9589 19.4741 27.9627 19.4779C28.5811 20.0973 28.9429 20.9204 28.9816 21.7955C29.0202 22.67 28.7326 23.5217 28.172 24.1938C27.9232 24.4919 27.6576 24.783 27.3822 25.0588C25.4428 27.0016 23.0949 27.9999 20.5103 28ZM11.0369 5.87699C10.6664 5.87699 10.2937 6.00488 9.98555 6.26338C9.71304 6.49203 9.44765 6.73717 9.19684 6.99211C4.8083 11.4495 7.22032 17.5381 11.4367 21.7066C15.6151 25.8639 21.6731 28.137 26.0557 23.7343C26.2917 23.4979 26.5194 23.2484 26.7326 22.9929C27.2736 22.3445 27.2339 21.4061 26.6412 20.8073L25.0136 19.2321C25.0097 19.2284 25.0058 19.2246 25.002 19.2208C24.629 18.8471 24.1186 18.6932 23.602 18.7988C23.0838 18.9045 22.6733 19.2475 22.4758 19.7396C22.3447 20.066 21.888 21.1602 21.5112 21.5376C20.6457 22.4046 19.6582 22.8442 18.5761 22.8442C16.5128 22.8442 14.6353 21.2285 13.2301 19.821C11.0981 17.7755 8.63396 14.2875 11.4163 11.5419C11.8107 11.1467 12.9306 10.6718 13.2644 10.5357C13.7493 10.3379 14.0872 9.92867 14.1915 9.41294C14.2965 8.89322 14.1424 8.38044 13.7687 8.006C13.7646 8.00197 13.7606 7.99785 13.7566 7.99372L12.1719 6.34694C11.8576 6.03492 11.4486 5.87699 11.0369 5.87699ZM28.0515 15.2053C27.5719 15.2053 27.1631 14.8391 27.1191 14.3521C26.7128 9.84394 23.146 6.27706 18.6378 5.8708C18.1223 5.82436 17.742 5.36875 17.7885 4.85321C17.8349 4.33762 18.2908 3.95732 18.8061 4.00385C24.0772 4.39798 28.5919 8.91281 28.9861 14.1838C29.0326 14.6994 28.6523 15.155 28.1367 15.2014C28.1082 15.2041 28.0797 15.2053 28.0515 15.2053ZM20.7492 15.2039C21.2403 15.0401 21.5055 14.5093 21.3417 14.0182C20.974 12.9162 20.1115 12.0311 19.0343 11.6503C18.5463 11.4777 18.0107 11.7336 17.8383 12.2217C17.6657 12.7097 17.9216 13.2452 18.4096 13.4177C18.946 13.6073 19.3774 14.0536 19.5635 14.6114C19.6945 15.004 20.0601 15.2523 20.4525 15.2523C20.5508 15.2524 20.6508 15.2368 20.7492 15.2039ZM24.4314 15.1958C24.9439 15.1225 25.2998 14.6477 25.2266 14.1352C24.757 10.8531 22.1369 8.23287 18.8547 7.76334C17.6177 7.63648 17.365 9.39358 18.5892 9.619C21.0522 9.97132 23.0185 11.9376 23.3709 14.4006C23.4377 14.8681 23.8387 15.2053 24.2975 15.2053C24.3417 15.2054 24.3864 15.2022 24.4314 15.1958Z" fill="currentColor"></path>
    </g>
    <defs>
      <clipPath id="clip0_401_2779">
        <rect width="24" height="24" fill="white" transform="translate(5 4)"></rect>
      </clipPath>
    </defs>
  </symbol>
  <symbol fill="none" xmlns="http://www.w3.org/2000/svg" viewBox="0 0 21 20" id="phone">
    <path d="M19.7915 16.7564C19.3875 17.8972 17.7842 18.8432 16.5054 19.1195C15.6304 19.3058 14.4876 19.4544 10.6406 17.8595C5.71974 15.8208 2.55083 10.8205 2.30385 10.496C2.06733 10.1716 0.31543 7.84831 0.31543 5.44546C0.31543 3.04261 1.53569 1.87258 2.02756 1.37024C2.43153 0.957908 3.09922 0.769531 3.7397 0.769531C3.94691 0.769531 4.1332 0.779997 4.30064 0.788369C4.79251 0.8093 5.0395 0.838603 5.36392 1.61513C5.76789 2.58841 6.75163 4.99126 6.86884 5.23824C6.98815 5.48523 7.10745 5.82012 6.94001 6.14455C6.78303 6.47944 6.64488 6.62804 6.3979 6.9127C6.15092 7.19736 5.91649 7.41504 5.66951 7.72063C5.44346 7.98645 5.18811 8.27111 5.47276 8.76298C5.75742 9.24439 6.74117 10.8498 8.18957 12.1391C10.0587 13.8031 11.5741 14.3347 12.1162 14.5608C12.5201 14.7282 13.0015 14.6885 13.2967 14.3745C13.6713 13.9705 14.1339 13.3008 14.6048 12.6414C14.9397 12.1684 15.3625 12.1098 15.8063 12.2772C16.2584 12.4342 18.6508 13.6168 19.1426 13.8617C19.6345 14.1087 19.9589 14.2259 20.0782 14.4331C20.1954 14.6403 20.1954 15.6136 19.7915 16.7564Z" fill="currentColor"></path>
  </symbol>
  <symbol fill="none" xmlns="http://www.w3.org/2000/svg" viewBox="0 0 30 30" id="telegram">
    <g clip-path="url(#clip0_401_1908)">
      <path d="M15.0019 29.1803C22.8333 29.1803 29.1819 22.8317 29.1819 15.0003C29.1819 7.16891 22.8333 0.820312 15.0019 0.820312C7.1705 0.820312 0.821899 7.16891 0.821899 15.0003C0.821899 22.8317 7.1705 29.1803 15.0019 29.1803Z" fill="currentColor"></path>
      <path fill-rule="evenodd" clip-rule="evenodd" d="M7.24064 14.8504C11.3744 13.0494 14.1309 11.862 15.5101 11.2884C19.448 9.65047 20.2663 9.36594 20.7996 9.35655C20.9169 9.35448 21.1792 9.38355 21.3491 9.52141C21.4926 9.63781 21.532 9.79505 21.5509 9.90542C21.5698 10.0158 21.5933 10.2672 21.5746 10.4636C21.3612 12.7058 20.4379 18.147 19.9681 20.6583C19.7693 21.7209 19.378 22.0772 18.999 22.1121C18.1756 22.1879 17.5503 21.5679 16.7527 21.0451C15.5047 20.227 14.7996 19.7177 13.5882 18.9194C12.1882 17.9968 13.0958 17.4898 13.8936 16.6611C14.1024 16.4442 17.7306 13.1441 17.8009 12.8447C17.8096 12.8073 17.8178 12.6677 17.7349 12.594C17.652 12.5203 17.5296 12.5455 17.4413 12.5656C17.3161 12.594 15.3224 13.9118 11.4601 16.5189C10.8942 16.9075 10.3816 17.0969 9.92231 17.0869C9.41601 17.076 8.44209 16.8007 7.71809 16.5653C6.83006 16.2767 6.12428 16.1241 6.18574 15.6338C6.21775 15.3785 6.56938 15.1173 7.24064 14.8504Z" fill="white"></path>
    </g>
    <defs>
      <clipPath id="clip0_401_1908">
        <rect width="28.36" height="28.36" fill="white" transform="translate(0.821899 0.820312)"></rect>
      </clipPath>
    </defs>
  </symbol>
  <symbol fill="none" xmlns="http://www.w3.org/2000/svg" viewBox="0 0 30 30" id="whats-app">
    <g clip-path="url(#clip0_401_1913)">
      <path fill-rule="evenodd" clip-rule="evenodd" d="M14.9965 0.818359H15.0036C22.8231 0.818359 29.1819 7.18068 29.1819 15.0002C29.1819 22.8197 22.8231 29.182 15.0036 29.182C12.1194 29.182 9.44433 28.324 7.20183 26.8385L1.75069 28.581L3.5181 23.3125C1.81806 20.9778 0.818237 18.1024 0.818237 15.0002C0.818237 7.1789 7.17701 0.818359 14.9965 0.818359ZM20.4722 22.8462C21.5553 22.6122 22.9132 21.8109 23.2554 20.8448C23.5975 19.8769 23.5975 19.0525 23.4982 18.8771C23.418 18.7378 23.2285 18.6465 22.9455 18.5103C22.8719 18.4748 22.7919 18.4363 22.7058 18.3931C22.2892 18.1857 20.263 17.1841 19.8801 17.0511C19.5043 16.9093 19.1462 16.959 18.8625 17.3596C18.8086 17.4351 18.7548 17.5108 18.7013 17.5861C18.3591 18.0673 18.029 18.5315 17.7546 18.8274C17.5046 19.0933 17.0969 19.127 16.7548 18.9852C16.7175 18.9696 16.6747 18.9524 16.6268 18.933C16.0851 18.7142 14.8836 18.229 13.4291 16.9341C12.2024 15.8421 11.3692 14.4825 11.1281 14.0747C10.8914 13.6657 11.0956 13.4259 11.2843 13.2042C11.2878 13.2001 11.2913 13.196 11.2948 13.1919C11.4164 13.0414 11.5345 12.916 11.6532 12.7901C11.7385 12.6994 11.8242 12.6085 11.9117 12.5076C11.9247 12.4927 11.9373 12.4781 11.9496 12.464C12.1355 12.2503 12.2461 12.1231 12.3708 11.8571C12.5126 11.5823 12.4116 11.2986 12.3105 11.0895C12.241 10.943 11.8115 9.90094 11.4429 9.00643C11.2851 8.62366 11.1385 8.2679 11.0359 8.02087C10.7612 7.36319 10.552 7.33837 10.1354 7.32064C10.1226 7.32 10.1097 7.31935 10.0967 7.31869C9.96503 7.31203 9.82001 7.30469 9.66031 7.30469C9.11786 7.30469 8.55236 7.46423 8.21022 7.81346C8.19827 7.82567 8.1858 7.83835 8.17287 7.8515C7.73516 8.29665 6.76013 9.28827 6.76013 11.265C6.76013 13.2455 8.16537 15.1622 8.42539 15.5168C8.43255 15.5266 8.43885 15.5352 8.44422 15.5426C8.45987 15.5631 8.48936 15.6058 8.53227 15.668C9.06317 16.4368 11.649 20.1815 15.505 21.779C18.7633 23.1298 19.7312 23.004 20.4722 22.8462Z" fill="currentColor"></path>
    </g>
    <defs>
      <clipPath id="clip0_401_1913">
        <rect width="28.3636" height="28.3636" fill="white" transform="translate(0.818237 0.818359)"></rect>
      </clipPath>
    </defs>
  </symbol>
  <symbol fill="none" xmlns="http://www.w3.org/2000/svg" viewBox="0 0 32 32" id="oil">
    <g clip-path="url(#clip0_108_2107)">
      <path d="M16 31.0625C24.3188 31.0625 31.0625 24.3188 31.0625 16C31.0625 7.68121 24.3188 0.9375 16 0.9375C7.68121 0.9375 0.9375 7.68121 0.9375 16C0.9375 24.3188 7.68121 31.0625 16 31.0625Z" stroke="currentColor" stroke-width="1.5" stroke-miterlimit="10" stroke-linecap="round" stroke-linejoin="round"></path>
      <path d="M26.6507 5.34961L22.5271 9.47323" stroke="currentColor" stroke-width="1.5" stroke-miterlimit="10" stroke-linecap="round" stroke-linejoin="round"></path>
      <path d="M8.46874 23.5312L5.3493 26.6507" stroke="currentColor" stroke-width="1.5" stroke-miterlimit="10" stroke-linecap="round" stroke-linejoin="round"></path>
      <path d="M16 7.46484C16 7.46484 22.025 12.4857 22.025 17.5065C22.025 20.8318 19.3253 23.5315 16 23.5315C12.6747 23.5315 9.97501 20.8318 9.97501 17.5065C9.97501 12.4857 16 7.46484 16 7.46484Z" stroke="currentColor" stroke-width="1.5" stroke-miterlimit="10" stroke-linecap="round" stroke-linejoin="round"></path>
    </g>
    <defs>
      <clipPath id="clip0_108_2107">
        <rect width="32" height="32" fill="white"></rect>
      </clipPath>
    </defs>
  </symbol>
  <symbol fill="none" xmlns="http://www.w3.org/2000/svg" viewBox="0 0 32 32" id="spike">
    <path fill-rule="evenodd" clip-rule="evenodd" d="M16 7.66699C15.4477 7.66699 15 7.21927 15 6.66699V2.66699C15 2.11471 15.4477 1.66699 16 1.66699C16.5523 1.66699 17 2.11471 17 2.66699V6.66699C17 7.21927 16.5523 7.66699 16 7.66699Z" fill="currentColor"></path>
    <path fill-rule="evenodd" clip-rule="evenodd" d="M16 30.334C15.4477 30.334 15 29.8863 15 29.334V25.334C15 24.7817 15.4477 24.334 16 24.334C16.5523 24.334 17 24.7817 17 25.334V29.334C17 29.8863 16.5523 30.334 16 30.334Z" fill="currentColor"></path>
    <path fill-rule="evenodd" clip-rule="evenodd" d="M24.3333 16C24.3333 15.4477 24.7811 15 25.3333 15H29.3333C29.8856 15 30.3333 15.4477 30.3333 16C30.3333 16.5523 29.8856 17 29.3333 17H25.3333C24.7811 17 24.3333 16.5523 24.3333 16Z" fill="currentColor"></path>
    <path fill-rule="evenodd" clip-rule="evenodd" d="M1.66666 16C1.66666 15.4477 2.11438 15 2.66666 15H6.66666C7.21894 15 7.66666 15.4477 7.66666 16C7.66666 16.5523 7.21894 17 6.66666 17H2.66666C2.11438 17 1.66666 16.5523 1.66666 16Z" fill="currentColor"></path>
    <path fill-rule="evenodd" clip-rule="evenodd" d="M21.8927 10.1078C21.5021 9.71728 21.5021 9.08412 21.8927 8.69358L24.7211 5.86516C25.1116 5.47464 25.7448 5.47464 26.1353 5.86516C26.5259 6.25569 26.5259 6.88885 26.1353 7.27937L23.3069 10.1078C22.9164 10.4983 22.2832 10.4983 21.8927 10.1078Z" fill="currentColor"></path>
    <path fill-rule="evenodd" clip-rule="evenodd" d="M5.86465 26.1362C5.47413 25.7456 5.47413 25.1126 5.86465 24.722L8.69308 21.8935C9.08361 21.503 9.71677 21.503 10.1073 21.8935C10.4978 22.284 10.4978 22.9172 10.1073 23.3078L7.27887 26.1362C6.88835 26.5267 6.25519 26.5267 5.86465 26.1362Z" fill="currentColor"></path>
    <path fill-rule="evenodd" clip-rule="evenodd" d="M10.1075 10.1078C9.71697 10.4983 9.08381 10.4983 8.69328 10.1078L5.86485 7.27937C5.47433 6.88885 5.47433 6.25568 5.86485 5.86516C6.25538 5.47464 6.88854 5.47464 7.27906 5.86516L10.1075 8.69358C10.498 9.0841 10.498 9.71728 10.1075 10.1078Z" fill="currentColor"></path>
    <path fill-rule="evenodd" clip-rule="evenodd" d="M26.1348 26.1352C25.7443 26.5257 25.1112 26.5257 24.7207 26.1352L21.8923 23.3068C21.5017 22.9162 21.5017 22.283 21.8923 21.8925C22.2827 21.502 22.9159 21.502 23.3064 21.8925L26.1348 24.7209C26.5253 25.1114 26.5253 25.7446 26.1348 26.1352Z" fill="currentColor"></path>
  </symbol>
  <symbol fill="none" xmlns="http://www.w3.org/2000/svg" viewBox="0 0 34 34" id="guarant">
    <mask id="mask0_108_2090" maskUnits="userSpaceOnUse" x="0" y="0" width="34" height="34">
      <path d="M0.200195 0.19883H33.8002V33.7988H0.200195V0.19883Z" fill="white"></path>
    </mask>
    <g mask="url(#mask0_108_2090)">
      <path d="M26.844 17C26.844 22.4366 22.4368 26.8438 17.0002 26.8438C11.5637 26.8438 7.15649 22.4366 7.15649 17C7.15649 11.5634 11.5637 7.15625 17.0002 7.15625C22.4368 7.15625 26.844 11.5634 26.844 17Z" stroke="currentColor" stroke-width="1.5" stroke-miterlimit="10" stroke-linecap="round" stroke-linejoin="round"></path>
      <path d="M21.9221 14.0469L16.0159 19.9531L12.0784 16.0156" stroke="currentColor" stroke-width="1.5" stroke-miterlimit="10" stroke-linecap="round" stroke-linejoin="round"></path>
      <path d="M15.7235 1.65325C16.4593 1.02653 17.5411 1.02653 18.2769 1.65325L20.8351 3.91108L25.1643 3.57606C26.128 3.50151 27.0032 4.13735 27.23 5.07684L28.098 8.67151L31.8805 10.9357C32.7039 11.4418 33.0382 12.4707 32.6695 13.364L31.1752 16.985L32.6695 20.606C33.0382 21.4994 32.7039 22.5283 31.8805 23.0344L28.098 25.2986L27.23 28.8933C27.0032 29.8327 26.128 30.4686 25.1643 30.394L20.8774 30.0622L18.2769 32.3444C17.5411 32.9711 16.4593 32.9711 15.7235 32.3444L13.1229 30.0622L8.83605 30.394C7.87241 30.4686 6.99717 29.8327 6.77037 28.8933L5.89894 25.2843L2.12274 23.0344C1.29928 22.5283 0.964989 21.4994 1.33374 20.606L2.82802 16.985L1.33374 13.364C0.964989 12.4707 1.29928 11.4418 2.12274 10.9357L5.57528 8.8846L6.77037 5.07684C6.99717 4.13735 7.87241 3.50151 8.83605 3.57606L13.1653 3.91108L15.7235 1.65325Z" stroke="currentColor" stroke-width="1.5" stroke-miterlimit="10" stroke-linecap="round" stroke-linejoin="round"></path>
    </g>
  </symbol>
   <symbol fill="none" xmlns="http://www.w3.org/2000/svg" viewBox="0 0 32 32" id="delivery">
      <path d="M22.7557 23.1582H12.6399" stroke="currentColor" stroke-width="2" stroke-miterlimit="10" stroke-linecap="round" stroke-linejoin="round"/>
      <mask id="mask0_235_2625" style="mask-type:luminance" maskUnits="userSpaceOnUse" x="0" y="0" width="32" height="32">
      <path d="M0 1.90735e-06H32V32H0V1.90735e-06Z" fill="white"/>
      </mask>
      <g mask="url(#mask0_235_2625)">
      <path d="M28.915 23.1592H31.0625V16.6389L25.6845 11.0821H21.2839V11.0901V23.1" stroke="currentColor" stroke-width="2" stroke-miterlimit="10" stroke-linecap="round" stroke-linejoin="round"/>
      <path d="M31.0625 16.6387H21.2836" stroke="currentColor" stroke-width="2" stroke-miterlimit="10" stroke-linecap="round" stroke-linejoin="round"/>
      <path d="M7.52649 20.8912C8.67262 19.745 10.5307 19.745 11.6769 20.8912C12.8229 22.0373 12.8229 23.8956 11.6769 25.0417C10.5307 26.1879 8.67262 26.1879 7.52649 25.0417C6.38037 23.8956 6.38037 22.0373 7.52649 20.8912Z" stroke="currentColor" stroke-width="2" stroke-miterlimit="10" stroke-linecap="round" stroke-linejoin="round"/>
      <path d="M23.8844 20.8912C25.0306 19.745 26.8887 19.745 28.0348 20.8912C29.1809 22.0373 29.1809 23.8956 28.0348 25.0417C26.8887 26.1879 25.0306 26.1879 23.8844 25.0417C22.7384 23.8956 22.7384 22.0373 23.8844 20.8912Z" stroke="currentColor" stroke-width="2" stroke-miterlimit="10" stroke-linecap="round" stroke-linejoin="round"/>
      <path d="M3.89746 6.09944V23.1484H6.54552" stroke="currentColor" stroke-width="2" stroke-miterlimit="10" stroke-linecap="round" stroke-linejoin="round"/>
      <path d="M21.3102 11.0898V6.09966H3.89749" stroke="currentColor" stroke-width="2" stroke-miterlimit="10" stroke-linecap="round" stroke-linejoin="round"/>
      <path d="M10.4022 6.09961H3.89746" stroke="currentColor" stroke-width="2" stroke-miterlimit="10" stroke-linecap="round" stroke-linejoin="round"/>
      <path d="M10.4022 9.85059H2.25027" stroke="currentColor" stroke-width="2" stroke-miterlimit="10" stroke-linecap="round" stroke-linejoin="round"/>
      <path d="M9.71453 13.6016H0.937469" stroke="currentColor" stroke-width="2" stroke-miterlimit="10" stroke-linecap="round" stroke-linejoin="round"/>
      </g>
  </symbol>
  <symbol width="32" height="32" viewBox="0 0 32 32" id="premium">
    <path d="M23.978 21.1433C23.8859 20.9216 23.675 20.7723 23.4353 20.759C23.3887 20.7565 23.0584 20.7404 22.5579 20.7658C24.5302 18.4707 24.1234 14.9113 24.0247 14.247C24.0205 14.1791 24.0052 14.1112 23.9781 14.0461C23.886 13.8245 23.6751 13.6751 23.4354 13.6618C23.3889 13.6593 23.0602 13.6433 22.5618 13.6685C24.5297 11.3733 24.1233 7.81802 24.0247 7.15415C24.0204 7.08483 24.0045 7.01558 23.9765 6.94946C23.8835 6.72977 23.6735 6.58215 23.4354 6.56896C23.2617 6.55946 19.1522 6.36183 16.9505 8.82383C16.5384 9.28452 16.2298 9.80321 16 10.3433C15.7702 9.80327 15.4616 9.28458 15.0495 8.82383C12.8477 6.36177 8.73842 6.5594 8.56455 6.5689C8.32636 6.58208 8.11692 6.73033 8.02399 6.95002C7.99717 7.0134 7.98149 7.07952 7.97649 7.14602C7.88005 7.78846 7.46217 11.3636 9.43811 13.6685C8.93974 13.6433 8.61111 13.6593 8.56455 13.6619C8.32486 13.6751 8.11442 13.8251 8.02236 14.0468C7.99649 14.1091 7.98136 14.174 7.97649 14.2391C7.87999 14.8823 7.4618 18.4613 9.44199 20.7659C8.94149 20.7405 8.61124 20.7566 8.56455 20.7591C8.32486 20.7723 8.11442 20.9223 8.02236 21.144C7.99649 21.2063 7.98136 21.2711 7.97649 21.3362C7.87886 21.9867 7.45192 25.6401 9.50974 27.941C11.261 29.898 14.1935 30.2251 15.371 30.2754V31.3752C15.371 31.7204 15.6508 32.0002 15.996 32.0002C16.3412 32.0002 16.621 31.7204 16.621 31.3752V30.2755C17.7945 30.2263 20.7354 29.9018 22.4902 27.9407C24.5397 25.6491 24.1244 22.016 24.0246 21.3442C24.0204 21.2763 24.0051 21.2084 23.978 21.1433ZM9.15711 14.9104C10.2384 14.9444 12.7298 15.1979 14.1178 16.75C15.5029 18.2986 15.4258 20.8305 15.3153 21.9226C14.2499 21.8632 11.8238 21.555 10.4414 20.0101C9.0443 18.4481 9.06986 15.9746 9.15711 14.9104ZM15.3153 29.0198C14.2499 28.9603 11.8238 28.6521 10.4414 27.1073C9.0443 25.5451 9.06986 23.0718 9.15711 22.0075C10.2384 22.0415 12.7298 22.295 14.1178 23.8471C15.503 25.3958 15.4258 27.9276 15.3153 29.0198ZM15.3153 14.8297C14.2499 14.7703 11.8237 14.462 10.4414 12.9173C9.0443 11.3551 9.06986 8.88171 9.15717 7.81746C10.2385 7.85152 12.73 8.10508 14.1178 9.65702C15.503 11.2058 15.4259 13.7376 15.3153 14.8297ZM22.843 14.9104C22.9302 15.9746 22.9558 18.4481 21.5587 20.0101C20.1767 21.5545 17.7519 21.863 16.6848 21.9226C16.5743 20.8303 16.4972 18.2985 17.8823 16.75C19.2704 15.1979 21.7617 14.9444 22.843 14.9104ZM17.8822 9.65702C19.2702 8.10496 21.7617 7.85152 22.8429 7.81746C22.9302 8.88165 22.9558 11.3551 21.5587 12.9171C20.1767 14.4615 17.7518 14.7701 16.6847 14.8296C16.5742 13.7374 16.4971 11.2056 17.8822 9.65702ZM21.5587 27.1072C20.1767 28.6516 17.7519 28.9601 16.6848 29.0197C16.5743 27.9275 16.4972 25.3956 17.8823 23.8471C19.2703 22.295 21.7617 22.0415 22.843 22.0075C22.9302 23.0718 22.9558 25.5451 21.5587 27.1072Z" fill="currentColor"/>
    <path d="M15.9961 2.16406C15.6509 2.16406 15.3711 2.44388 15.3711 2.78906V6.00781C15.3711 6.353 15.6509 6.63281 15.9961 6.63281C16.3413 6.63281 16.6211 6.353 16.6211 6.00781V2.78906C16.6211 2.44388 16.3413 2.16406 15.9961 2.16406Z" fill="currentColor"/>
    <path d="M15.9961 0C15.6509 0 15.3711 0.279813 15.3711 0.625V0.633625C15.3711 0.978812 15.6509 1.25863 15.9961 1.25863C16.3413 1.25863 16.6211 0.978812 16.6211 0.633625V0.625C16.6211 0.279813 16.3413 0 15.9961 0Z" fill="currentColor"/>
    <path d="M12.9961 2.91602C12.6509 2.91602 12.3711 3.19583 12.3711 3.54102V5.91677C12.3711 6.26195 12.6509 6.54183 12.9961 6.54183C13.3413 6.54183 13.6211 6.26202 13.6211 5.91683V3.54102C13.6211 3.19583 13.3412 2.91602 12.9961 2.91602Z" fill="currentColor"/>
    <path d="M12.9961 0.751953C12.6509 0.751953 12.3711 1.03177 12.3711 1.37695V1.38558C12.3711 1.73077 12.6509 2.01058 12.9961 2.01058C13.3413 2.01058 13.6211 1.73077 13.6211 1.38558V1.37695C13.6211 1.03177 13.3413 0.751953 12.9961 0.751953Z" fill="currentColor"/>
    <path d="M18.9961 2.91602C18.6509 2.91602 18.3711 3.19583 18.3711 3.54102V5.91677C18.3711 6.26195 18.6509 6.54183 18.9961 6.54183C19.3413 6.54183 19.6211 6.26202 19.6211 5.91683V3.54102C19.6211 3.19583 19.3413 2.91602 18.9961 2.91602Z" fill="currentColor"/>
    <path d="M18.9961 0.751953C18.6509 0.751953 18.3711 1.03177 18.3711 1.37695V1.38558C18.3711 1.73077 18.6509 2.01058 18.9961 2.01058C19.3413 2.01058 19.6211 1.73077 19.6211 1.38558V1.37695C19.6211 1.03177 19.3413 0.751953 18.9961 0.751953Z" fill="currentColor"/>
  </symbol>

  <symbol width="32" height="32" viewBox="0 0 32 32" id="shape">
    <path d="M1.94169 18.0079H18.0084C18.0084 13.5712 14.4118 9.97461 9.97506 9.97461C5.53838 9.97461 1.94169 13.5712 1.94169 18.0079Z" stroke="currentColor" stroke-width="1.4" stroke-miterlimit="10" stroke-linecap="round" stroke-linejoin="round"/>
    <path d="M0.9375 18.0088H27.0458C27.0458 25.2184 21.2013 31.063 13.9917 31.063C6.78206 31.063 0.9375 25.2184 0.9375 18.0088Z" stroke="currentColor" stroke-width="1.4" stroke-miterlimit="10" stroke-linecap="round" stroke-linejoin="round"/>
    <path d="M5.95831 18.0079H13.9916C13.9916 15.7895 12.1933 13.9912 9.97494 13.9912C7.75656 13.9912 5.95831 15.7896 5.95831 18.0079Z" stroke="currentColor" stroke-width="1.4" stroke-miterlimit="10" stroke-linecap="round" stroke-linejoin="round"/>
    <path d="M7.96669 31.0625H20.0167" stroke="currentColor" stroke-width="1.4" stroke-miterlimit="10" stroke-linecap="round" stroke-linejoin="round"/>
    <path d="M18.0083 0.9375H31.0625" stroke="currentColor" stroke-width="1.4" stroke-miterlimit="10" stroke-linecap="round" stroke-linejoin="round"/>
    <path d="M18.0083 4.9541H31.0625" stroke="currentColor" stroke-width="1.4" stroke-miterlimit="10" stroke-linecap="round" stroke-linejoin="round"/>
    <path d="M5.95831 0.9375H9.975" stroke="currentColor" stroke-width="1.4" stroke-miterlimit="10" stroke-linecap="round" stroke-linejoin="round"/>
    <path d="M5.95831 4.9541H9.975" stroke="currentColor" stroke-width="1.4" stroke-miterlimit="10" stroke-linecap="round" stroke-linejoin="round"/>
    <path d="M13.9917 0.9375V10.9792" stroke="currentColor" stroke-width="1.4" stroke-miterlimit="10" stroke-linecap="round" stroke-linejoin="round"/>
    <path d="M18.0083 9.975V0.9375H9.975V9.975" stroke="currentColor" stroke-width="1.4" stroke-miterlimit="10" stroke-linecap="round" stroke-linejoin="round"/>
    <path d="M13.9917 11.0494C16.3929 12.4383 18.0084 15.0344 18.0084 18.0079H26.0417C26.0417 13.5712 22.4451 9.97461 18.0084 9.97461C16.5451 9.97461 15.1732 10.3659 13.9917 11.0494Z" stroke="currentColor" stroke-width="1.4" stroke-miterlimit="10" stroke-linecap="round" stroke-linejoin="round"/>
    <path d="M17.0052 14.1175C17.6444 15.2703 18.0084 16.5966 18.0084 18.0079H22.025C22.025 15.7895 20.2267 13.9912 18.0083 13.9912C17.6621 13.9913 17.326 14.0351 17.0052 14.1175Z" stroke="currentColor" stroke-width="1.4" stroke-miterlimit="10" stroke-linecap="round" stroke-linejoin="round"/>
  </symbol>

  <symbol xmlns="http://www.w3.org/2000/svg"  viewBox="0 0 32 32" fill="none" id="fried">
    <path d="M31.8593 13.714C31.8593 13.6085 32.211 10.8656 27.9209 9.81066C26.2681 9.42385 25.0022 9.52934 24.1231 10.1623C23.2088 10.8304 23.1033 11.7799 23.1033 11.8502V14.2063C21.6615 14.0656 20.2549 13.9601 19.0593 13.8898C18.9187 13.503 18.0044 12.026 17.8286 11.7096C16.5275 9.49418 16.9846 8.26341 18.8835 6.71616C19.2352 6.43484 19.2703 5.94253 18.989 5.62605C18.7077 5.2744 18.2154 5.23923 17.8989 5.52055C15.9297 7.10297 14.5231 9.1777 16.4923 12.5184C16.7033 12.87 17.2308 13.714 17.3011 13.8546C16.6681 13.8546 16.2462 13.8546 16.1758 13.8546C15.8593 13.8546 12.0264 13.8546 8.2989 14.3469C7.5956 13.8195 6.61099 13.2568 5.13406 12.9052C3.65714 12.5535 2.42637 12.6942 1.51209 13.3271C0.351646 14.1359 0.140656 15.4019 0.105492 15.5425C0.105492 15.648 0.105492 15.7535 0.140656 15.859L1.12527 19.059C1.96923 25.7052 8.40439 30.8392 16.1758 30.8392C24.5099 30.8392 31.2967 24.9315 31.2967 17.6524C31.2967 17.6524 31.3319 17.3711 31.156 16.9843C31.0857 16.8788 31.8593 13.7491 31.8593 13.714ZM24.6857 11.8502C24.7209 11.7447 24.8264 11.5689 25.0022 11.4634C25.4945 11.1118 26.3736 11.0766 27.4989 11.3579C30.2066 11.9909 30.2769 13.3271 30.2769 13.503L29.7494 15.7887C28.4835 15.1557 26.6198 14.7337 24.6505 14.4524C24.6505 14.4524 24.6505 11.9206 24.6857 11.8502ZM17.3011 15.4722C17.1253 15.6832 16.844 15.8942 16.4923 16.2107C16.1758 16.492 16.1407 16.9843 16.422 17.3008C16.5626 17.4766 16.8088 17.5821 17.0198 17.5821C17.1956 17.5821 17.3714 17.5118 17.5473 17.4063C18.3912 16.6678 18.8835 16.07 19.1297 15.5425C25.4593 15.7887 29.222 16.8788 29.7143 17.5821C29.1516 18.3557 24.3341 19.692 16.1758 19.692C13.7494 19.692 11.6044 19.5865 9.81099 19.3755C9.81099 19.3755 9.81099 16.492 9.81099 16.4568C9.81099 16.4217 9.74066 16.1755 9.52967 15.7887C11.3934 15.5777 13.6088 15.4722 16.1758 15.4722H17.3011ZM7.77143 15.9997C8.05274 16.3162 8.1934 16.5975 8.22857 16.703V19.1997C4.88791 18.7425 2.95384 18.0744 2.6022 17.5821C2.95384 17.1249 4.74725 16.4568 7.77143 15.9997ZM2.42637 14.6634C2.95384 14.2766 3.76263 14.2414 4.78241 14.4876C5.16923 14.5931 5.48571 14.6986 5.8022 14.8041C4.14945 15.1206 2.74285 15.5777 1.86373 16.2107L1.68791 15.6832C1.7934 15.437 1.96923 14.9799 2.42637 14.6634ZM16.1758 29.2568C10.1275 29.2568 4.9934 25.8458 3.27033 21.1689C3.23516 21.0634 2.91868 19.5162 2.91868 19.5162C4.29011 20.114 6.25934 20.5008 8.26373 20.7821V21.7315C8.26373 22.1535 8.61538 22.5052 9.03736 22.5052C9.45934 22.5052 9.81099 22.1535 9.81099 21.7315V20.9579C13.011 21.2744 15.8945 21.2744 16.1758 21.2744C16.6681 21.2744 25.7055 21.2392 29.5736 19.481C28.5538 25.0019 22.9275 29.2568 16.1758 29.2568Z" fill="currentColor"/>
    <path d="M19.9385 9.07238C19.5516 9.28337 19.411 9.74052 19.5868 10.1273C19.7275 10.4086 20.0088 10.5493 20.2901 10.5493C20.3956 10.5493 20.5363 10.5141 20.6418 10.479C21.556 9.98667 22.1187 8.82623 22.1538 7.17348C22.2242 5.27458 21.5912 2.9537 20.2901 2.18008C19.9033 1.96909 19.4462 2.07458 19.2352 2.4614C19.0242 2.84821 19.1297 3.30535 19.5165 3.51634C20.0791 3.86799 20.6769 5.41524 20.6066 7.10315C20.5714 8.22843 20.2198 8.89656 19.9385 9.07238Z" fill="currentColor"/>
    <path d="M14.3121 5.76702C13.9253 5.55603 13.4681 5.73185 13.2571 6.11867C12.6945 7.20878 11.3582 10.1978 12.9055 12.2022C13.0462 12.4132 13.5736 12.6593 13.9956 12.3428C14.3472 12.0615 14.4176 11.6044 14.1363 11.2527C13.7143 10.6901 13.1516 9.77581 14.6286 6.82196C14.8396 6.43515 14.6989 5.97801 14.3121 5.76702Z" fill="currentColor"/>
    <path d="M15.6484 24.8962C15.6132 24.8962 13.011 24.8962 10.444 24.1577C10.022 24.0522 9.6 24.2632 9.4945 24.6852C9.38901 25.1072 9.6 25.5292 10.022 25.6347C12.8 26.4435 15.5429 26.4435 15.6484 26.4435C16.0703 26.4435 16.422 26.0918 16.422 25.6698C16.422 25.2479 16.0703 24.8962 15.6484 24.8962Z" fill="currentColor"/>
  </symbol>
  <symbol xmlns="http://www.w3.org/2000/svg"  viewBox="0 0 24 24" fill="none" id="arrow">
    <path d="M12.6 12L8 7.4L9.4 6L15.4 12L9.4 18L8 16.6L12.6 12Z" fill="currentColor"/>
  </symbol>

  <symbol xmlns="http://www.w3.org/2000/svg" viewBox="0 0 24 24" fill="none" id="close">
    <line x1="1.74793" y1="22.1112" x2="21.9169" y2="1.94225" stroke="currentColor" stroke-width="3"/>
    <line x1="2.06066" y1="1.93934" x2="22.2296" y2="22.1083" stroke="currentColor" stroke-width="3"/>
  </symbol>
</svg>