<svg width="30" height="30" viewBox="0 0 30 30" fill="none" xmlns="http://www.w3.org/2000/svg">
<g clip-path="url(#clip0_401_1908)">
<path d="M15.0019 29.1803C22.8333 29.1803 29.1819 22.8317 29.1819 15.0003C29.1819 7.16891 22.8333 0.820312 15.0019 0.820312C7.1705 0.820312 0.821899 7.16891 0.821899 15.0003C0.821899 22.8317 7.1705 29.1803 15.0019 29.1803Z" fill="black"/>
<path fill-rule="evenodd" clip-rule="evenodd" d="M7.24064 14.8504C11.3744 13.0494 14.1309 11.862 15.5101 11.2884C19.448 9.65047 20.2663 9.36594 20.7996 9.35655C20.9169 9.35448 21.1792 9.38355 21.3491 9.52141C21.4926 9.63781 21.532 9.79505 21.5509 9.90542C21.5698 10.0158 21.5933 10.2672 21.5746 10.4636C21.3612 12.7058 20.4379 18.147 19.9681 20.6583C19.7693 21.7209 19.378 22.0772 18.999 22.1121C18.1756 22.1879 17.5503 21.5679 16.7527 21.0451C15.5047 20.227 14.7996 19.7177 13.5882 18.9194C12.1882 17.9968 13.0958 17.4898 13.8936 16.6611C14.1024 16.4442 17.7306 13.1441 17.8009 12.8447C17.8096 12.8073 17.8178 12.6677 17.7349 12.594C17.652 12.5203 17.5296 12.5455 17.4413 12.5656C17.3161 12.594 15.3224 13.9118 11.4601 16.5189C10.8942 16.9075 10.3816 17.0969 9.92231 17.0869C9.41601 17.076 8.44209 16.8007 7.71809 16.5653C6.83006 16.2767 6.12428 16.1241 6.18574 15.6338C6.21775 15.3785 6.56938 15.1173 7.24064 14.8504Z" fill="white"/>
</g>
<defs>
<clipPath id="clip0_401_1908">
<rect width="28.36" height="28.36" fill="white" transform="translate(0.821899 0.820312)"/>
</clipPath>
</defs>
</svg>
