<svg width="2074" height="93" viewBox="0 0 2074 93" fill="none" xmlns="http://www.w3.org/2000/svg">

<path d="M1354 38.9641C1358.5 42.0641 1363 45.2641 1367.6 48.2641C1375 53.0641 1382.7 57.1641 1391.2 59.8641C1404.1 64.0641 1416.7 62.9641 1429.1 57.8641C1436.8 54.6641 1444 50.5641 1450.9 45.7641C1456.7 41.7641 1462.3 37.5641 1468.1 33.4641C1482 23.5641 1496.6 14.9641 1512.7 8.86412C1528.6 2.76413 1545.1 -0.335874 1562.2 0.464128C1575.7 1.06413 1588.6 4.06413 1601.2 8.86413C1617.1 14.9641 1631.7 23.4641 1645.6 33.3641C1650.5 36.8641 1655.4 40.5641 1660.5 43.9641C1670.3 50.5641 1680.8 55.7641 1692.2 58.9641C1710.2 63.9641 1727.6 62.1641 1744.7 54.9641C1754.8 50.6641 1764.2 44.9641 1773 38.4641C1784.4 29.9641 1796.2 22.0641 1809 15.6641C1820.5 9.86415 1832.4 5.46415 1845 2.96415C1864.3 -0.835846 1883.2 0.564154 1901.8 6.56416C1916.8 11.3642 1930.7 18.6642 1943.8 27.2642C1949.3 30.8642 1954.6 34.7642 1959.9 38.5642C1968.8 45.0642 1977.9 50.9642 1988 55.4642C1998.4 60.0642 2009.2 62.5642 2020.6 61.9642C2029 61.4642 2037 59.2642 2044.7 55.9642C2054.2 51.8642 2063 46.2642 2071.5 40.1642C2072.2 39.6642 2073.1 39.3642 2074 38.9642C2074 50.7642 2074 62.6642 2074 74.4642C2069.2 76.9642 2064.4 79.6642 2059.5 81.9642C2048.3 87.1642 2036.7 90.6642 2024.3 91.6642C2011.1 92.7642 1998.3 90.9642 1985.8 86.7642C1971.9 82.0642 1959.2 74.9642 1947.3 66.5642C1941 62.1642 1934.9 57.5642 1928.5 53.1642C1918.2 46.1642 1907.3 40.0642 1895.5 35.8642C1884.1 31.7641 1872.4 29.9641 1860.4 30.8641C1850.3 31.6641 1840.6 34.2641 1831.2 38.1641C1818.7 43.3641 1807.3 50.3641 1796.4 58.2641C1788.5 63.9641 1780.7 69.7641 1772.1 74.5641C1759.7 81.5641 1746.7 86.9641 1732.7 89.7641C1713.7 93.4641 1695.2 91.9641 1676.9 85.6641C1661.6 80.3641 1647.7 72.3641 1634.7 62.7641C1625 55.6641 1615.2 48.8641 1604.5 43.2641C1594.7 38.1641 1584.6 34.2641 1573.7 32.1641C1558.1 29.1641 1542.8 30.3641 1527.8 35.2641C1514.2 39.7641 1501.7 46.5641 1489.9 54.6641C1482 60.0641 1474.3 65.8641 1466.4 71.2641C1456.4 77.9641 1445.9 83.6641 1434.5 87.6641C1414.3 94.7641 1394.3 93.8641 1374.6 85.6641C1367.4 82.6641 1360.4 79.1641 1353.8 74.8641C1354 62.9641 1354 50.9641 1354 38.9641Z" fill="#56BB97"/>
<path d="M902.801 53.8288C907.301 50.7288 911.801 47.5288 916.401 44.5288C923.801 39.7288 931.501 35.6288 940.001 32.9288C952.901 28.7288 965.501 29.8288 977.901 34.9288C985.601 38.1288 992.801 42.2288 999.701 47.0288C1005.5 51.0288 1011.1 55.2288 1016.9 59.3288C1030.8 69.2288 1045.4 77.8288 1061.5 83.9288C1077.4 90.0288 1093.9 93.1288 1111 92.3288C1124.5 91.7288 1137.4 88.7288 1150 83.9288C1165.9 77.8288 1180.5 69.3288 1194.4 59.4288C1199.3 55.9288 1204.2 52.2288 1209.3 48.8288C1219.1 42.2288 1229.6 37.0288 1241 33.8288C1259 28.8288 1276.4 30.6288 1293.5 37.8288C1303.6 42.1288 1313 47.8288 1321.8 54.3288C1333.2 62.8288 1345 70.7288 1357.8 77.1288C1369.3 82.9288 1381.2 87.3288 1393.8 89.8288C1413.1 93.6288 1432 92.2288 1450.6 86.2288C1465.6 81.4288 1479.5 74.1288 1492.6 65.5288C1498.1 61.9288 1503.4 58.0288 1508.7 54.2288C1517.6 47.7288 1526.7 41.8288 1536.8 37.3288C1547.2 32.7288 1558 30.2288 1569.4 30.8288C1577.8 31.3288 1585.8 33.5288 1593.5 36.8288C1603 40.9288 1611.8 46.5288 1620.3 52.6288C1621 53.1288 1621.9 53.4288 1622.8 53.8288C1622.8 42.0288 1622.8 30.1288 1622.8 18.3288C1618 15.8288 1613.2 13.1288 1608.3 10.8288C1597.1 5.6288 1585.5 2.1288 1573.1 1.1288C1559.9 0.0288011 1547.1 1.8288 1534.6 6.0288C1520.7 10.7288 1508 17.8288 1496.1 26.2288C1489.8 30.6288 1483.7 35.2288 1477.3 39.6288C1467 46.6288 1456.1 52.7288 1444.3 56.9288C1432.9 61.0288 1421.2 62.8288 1409.2 61.9288C1399.1 61.1288 1389.4 58.5288 1380 54.6288C1367.5 49.4288 1356.1 42.4288 1345.2 34.5288C1337.3 28.8288 1329.5 23.0288 1320.9 18.2288C1308.5 11.2288 1295.5 5.8288 1281.5 3.0288C1262.5 -0.671199 1244 0.828801 1225.7 7.1288C1210.4 12.4288 1196.5 20.4288 1183.5 30.0288C1173.8 37.1288 1164 43.9288 1153.3 49.5288C1143.5 54.6288 1133.4 58.5288 1122.5 60.6288C1106.9 63.6288 1091.6 62.4288 1076.6 57.5288C1063 53.0288 1050.5 46.2288 1038.7 38.1288C1030.8 32.7288 1023.1 26.9288 1015.2 21.5288C1005.2 14.8288 994.701 9.1288 983.301 5.1288C963.101 -1.9712 943.101 -1.0712 923.401 7.1288C916.201 10.1288 909.201 13.6288 902.601 17.9288C902.801 29.8288 902.801 41.8288 902.801 53.8288Z" fill="#56BB97"/>
<path d="M451.602 38.9641C456.102 42.0641 460.602 45.2641 465.202 48.2641C472.602 53.0641 480.302 57.1641 488.802 59.8641C501.702 64.0641 514.302 62.9641 526.702 57.8641C534.402 54.6641 541.602 50.5641 548.502 45.7641C554.302 41.7641 559.902 37.5641 565.702 33.4641C579.602 23.5641 594.202 14.9641 610.302 8.86412C626.202 2.76413 642.702 -0.335874 659.802 0.464128C673.302 1.06413 686.202 4.06413 698.802 8.86413C714.702 14.9641 729.302 23.4641 743.202 33.3641C748.102 36.8641 753.002 40.5641 758.102 43.9641C767.902 50.5641 778.402 55.7641 789.802 58.9641C807.802 63.9641 825.202 62.1641 842.302 54.9641C852.402 50.6641 861.802 44.9641 870.602 38.4641C882.002 29.9641 893.802 22.0641 906.602 15.6641C918.102 9.86415 930.002 5.46415 942.602 2.96415C961.902 -0.835846 980.802 0.564154 999.402 6.56416C1014.4 11.3642 1028.3 18.6642 1041.4 27.2642C1046.9 30.8642 1052.2 34.7642 1057.5 38.5642C1066.4 45.0642 1075.5 50.9642 1085.6 55.4642C1096 60.0642 1106.8 62.5642 1118.2 61.9642C1126.6 61.4642 1134.6 59.2642 1142.3 55.9642C1151.8 51.8642 1160.6 46.2642 1169.1 40.1642C1169.8 39.6642 1170.7 39.3642 1171.6 38.9642C1171.6 50.7642 1171.6 62.6642 1171.6 74.4642C1166.8 76.9642 1162 79.6642 1157.1 81.9642C1145.9 87.1642 1134.3 90.6642 1121.9 91.6642C1108.7 92.7642 1095.9 90.9642 1083.4 86.7642C1069.5 82.0642 1056.8 74.9642 1044.9 66.5642C1038.6 62.1642 1032.5 57.5642 1026.1 53.1642C1015.8 46.1642 1004.9 40.0642 993.102 35.8642C981.702 31.7641 970.002 29.9641 958.002 30.8641C947.902 31.6641 938.202 34.2641 928.802 38.1641C916.302 43.3641 904.902 50.3641 894.002 58.2641C886.102 63.9641 878.302 69.7641 869.702 74.5641C857.302 81.5641 844.302 86.9641 830.302 89.7641C811.302 93.4641 792.802 91.9641 774.502 85.6641C759.202 80.3641 745.302 72.3641 732.302 62.7641C722.602 55.6641 712.802 48.8641 702.102 43.2641C692.302 38.1641 682.202 34.2641 671.302 32.1641C655.702 29.1641 640.402 30.3641 625.402 35.2641C611.802 39.7641 599.302 46.5641 587.502 54.6641C579.602 60.0641 571.902 65.8641 564.002 71.2641C554.002 77.9641 543.502 83.6641 532.102 87.6641C511.902 94.7641 491.902 93.8641 472.202 85.6641C465.002 82.6641 458.002 79.1641 451.402 74.8641C451.602 62.9641 451.602 50.9641 451.602 38.9641Z" fill="#56BB97"/>
<path d="M0.398438 53.8288C4.89844 50.7288 9.39841 47.5288 13.9984 44.5288C21.3984 39.7288 29.0984 35.6288 37.5984 32.9288C50.4984 28.7288 63.0984 29.8288 75.4984 34.9288C83.1984 38.1288 90.3985 42.2288 97.2985 47.0288C103.098 51.0288 108.698 55.2288 114.498 59.3288C128.398 69.2288 142.998 77.8288 159.098 83.9288C174.998 90.0288 191.498 93.1288 208.598 92.3288C222.098 91.7288 234.998 88.7288 247.598 83.9288C263.498 77.8288 278.098 69.3288 291.998 59.4288C296.898 55.9288 301.798 52.2288 306.898 48.8288C316.698 42.2288 327.198 37.0288 338.598 33.8288C356.598 28.8288 373.998 30.6288 391.098 37.8288C401.198 42.1288 410.598 47.8288 419.398 54.3288C430.798 62.8288 442.598 70.7288 455.398 77.1288C466.898 82.9288 478.798 87.3288 491.398 89.8288C510.698 93.6288 529.598 92.2288 548.198 86.2288C563.198 81.4288 577.098 74.1288 590.198 65.5288C595.698 61.9288 600.998 58.0288 606.298 54.2288C615.198 47.7288 624.298 41.8288 634.398 37.3288C644.798 32.7288 655.598 30.2288 666.998 30.8288C675.398 31.3288 683.398 33.5288 691.098 36.8288C700.598 40.9288 709.398 46.5288 717.898 52.6288C718.598 53.1288 719.498 53.4288 720.398 53.8288C720.398 42.0288 720.398 30.1288 720.398 18.3288C715.598 15.8288 710.798 13.1288 705.898 10.8288C694.698 5.6288 683.098 2.1288 670.698 1.1288C657.498 0.0288011 644.698 1.8288 632.198 6.0288C618.298 10.7288 605.598 17.8288 593.698 26.2288C587.398 30.6288 581.298 35.2288 574.898 39.6288C564.598 46.6288 553.698 52.7288 541.898 56.9288C530.498 61.0288 518.798 62.8288 506.798 61.9288C496.698 61.1288 486.998 58.5288 477.598 54.6288C465.098 49.4288 453.698 42.4288 442.798 34.5288C434.898 28.8288 427.098 23.0288 418.498 18.2288C406.098 11.2288 393.098 5.8288 379.098 3.0288C360.098 -0.671199 341.598 0.828801 323.298 7.1288C307.998 12.4288 294.098 20.4288 281.098 30.0288C271.398 37.1288 261.598 43.9288 250.898 49.5288C241.098 54.6288 230.998 58.5288 220.098 60.6288C204.498 63.6288 189.198 62.4288 174.198 57.5288C160.598 53.0288 148.098 46.2288 136.298 38.1288C128.398 32.7288 120.698 26.9288 112.798 21.5288C102.798 14.8288 92.2984 9.1288 80.8984 5.1288C60.6984 -1.9712 40.6984 -1.0712 20.9984 7.1288C13.7984 10.1288 6.79843 13.6288 0.198425 17.9288C0.398425 29.8288 0.398438 41.8288 0.398438 53.8288Z" fill="#56BB97"/>
</svg>
