<svg width="30" height="30" viewBox="0 0 30 30" fill="none" xmlns="http://www.w3.org/2000/svg">
<g clip-path="url(#clip0_401_1913)">
<path fill-rule="evenodd" clip-rule="evenodd" d="M14.9965 0.818359H15.0036C22.8231 0.818359 29.1819 7.18068 29.1819 15.0002C29.1819 22.8197 22.8231 29.182 15.0036 29.182C12.1194 29.182 9.44433 28.324 7.20183 26.8385L1.75069 28.581L3.5181 23.3125C1.81806 20.9778 0.818237 18.1024 0.818237 15.0002C0.818237 7.1789 7.17701 0.818359 14.9965 0.818359ZM20.4722 22.8462C21.5553 22.6122 22.9132 21.8109 23.2554 20.8448C23.5975 19.8769 23.5975 19.0525 23.4982 18.8771C23.418 18.7378 23.2285 18.6465 22.9455 18.5103C22.8719 18.4748 22.7919 18.4363 22.7058 18.3931C22.2892 18.1857 20.263 17.1841 19.8801 17.0511C19.5043 16.9093 19.1462 16.959 18.8625 17.3596C18.8086 17.4351 18.7548 17.5108 18.7013 17.5861C18.3591 18.0673 18.029 18.5315 17.7546 18.8274C17.5046 19.0933 17.0969 19.127 16.7548 18.9852C16.7175 18.9696 16.6747 18.9524 16.6268 18.933C16.0851 18.7142 14.8836 18.229 13.4291 16.9341C12.2024 15.8421 11.3692 14.4825 11.1281 14.0747C10.8914 13.6657 11.0956 13.4259 11.2843 13.2042C11.2878 13.2001 11.2913 13.196 11.2948 13.1919C11.4164 13.0414 11.5345 12.916 11.6532 12.7901C11.7385 12.6994 11.8242 12.6085 11.9117 12.5076C11.9247 12.4927 11.9373 12.4781 11.9496 12.464C12.1355 12.2503 12.2461 12.1231 12.3708 11.8571C12.5126 11.5823 12.4116 11.2986 12.3105 11.0895C12.241 10.943 11.8115 9.90094 11.4429 9.00643C11.2851 8.62366 11.1385 8.2679 11.0359 8.02087C10.7612 7.36319 10.552 7.33837 10.1354 7.32064C10.1226 7.32 10.1097 7.31935 10.0967 7.31869C9.96503 7.31203 9.82001 7.30469 9.66031 7.30469C9.11786 7.30469 8.55236 7.46423 8.21022 7.81346C8.19827 7.82567 8.1858 7.83835 8.17287 7.8515C7.73516 8.29665 6.76013 9.28827 6.76013 11.265C6.76013 13.2455 8.16537 15.1622 8.42539 15.5168C8.43255 15.5266 8.43885 15.5352 8.44422 15.5426C8.45987 15.5631 8.48936 15.6058 8.53227 15.668C9.06317 16.4368 11.649 20.1815 15.505 21.779C18.7633 23.1298 19.7312 23.004 20.4722 22.8462Z" fill="black"/>
</g>
<defs>
<clipPath id="clip0_401_1913">
<rect width="28.3636" height="28.3636" fill="white" transform="translate(0.818237 0.818359)"/>
</clipPath>
</defs>
</svg>
